<?xml version="1.0" encoding="utf-8"?>
<!-- Generator: Adobe Illustrator 25.2.1, SVG Export Plug-In . SVG Version: 6.00 Build 0)  -->
<svg version="1.1" id="レイヤー_1" xmlns="http://www.w3.org/2000/svg" xmlns:xlink="http://www.w3.org/1999/xlink" x="0px"
	 y="0px" viewBox="0 0 24 24" style="enable-background:new 0 0 24 24;" xml:space="preserve">
<style type="text/css">
	.st0{fill:#195B72;}
</style>
<path class="st0" d="M23.6,10.9c-0.6-0.6-1.5-0.6-2.1,0l-7.9,7.9V1.5C13.5,0.7,12.8,0,12,0s-1.5,0.7-1.5,1.5v17.4l-7.9-7.9
	c-0.6-0.6-1.5-0.6-2.1,0c-0.6,0.6-0.6,1.5,0,2.1l10.5,10.5c0.1,0.1,0.3,0.3,0.5,0.3c0,0,0,0,0,0C11.6,24,11.8,24,12,24
	s0.4,0,0.5-0.1c0,0,0,0,0,0c0.2-0.1,0.4-0.2,0.5-0.3l10.5-10.5C24.1,12.5,24.1,11.5,23.6,10.9z"/>
</svg>
