<?xml version="1.0" encoding="utf-8"?>
<!-- Generator: Adobe Illustrator 16.0.0, SVG Export Plug-In . SVG Version: 6.00 Build 0)  -->
<!DOCTYPE svg PUBLIC "-//W3C//DTD SVG 1.1//EN" "http://www.w3.org/Graphics/SVG/1.1/DTD/svg11.dtd">
<svg version="1.1" id="レイヤー_1" xmlns="http://www.w3.org/2000/svg" xmlns:xlink="http://www.w3.org/1999/xlink" x="0px"
	 y="0px" width="512px" height="512px" viewBox="0 0 512 512" enable-background="new 0 0 512 512" xml:space="preserve">
<path fill="#FFFFFF" d="M303.133,47.152v-0.02C303.133,21.145,281.988,0,256,0s-47.133,21.145-47.133,47.133v0.016
	c15.43-2.539,31.18-3.852,47.133-3.852S287.699,44.609,303.133,47.152z"/>
<path fill="#FFFFFF" d="M150.309,133.336c8.602-19.02,18.43-35.23,29.211-48.441C79.969,115.957,6.672,206.105,0.43,314.297h113.262
	C115.262,246.164,128.121,182.367,150.309,133.336z"/>
<path fill="#FFFFFF" d="M256,73.297c-59.91,0-109.051,106.859-112.289,241h224.578C365.051,180.156,315.91,73.297,256,73.297z"/>
<path fill="#FFFFFF" d="M398.301,314.297h113.27c-6.242-108.262-79.582-198.289-179.012-229.371
	c10.91,13.391,20.82,29.832,29.492,49.172C384,183.098,396.738,246.637,398.301,314.297z"/>
<path fill="#FFFFFF" d="M0,344.297v65.328c0,17.16,13.91,31.07,31.07,31.07h163.418c-10.438-13.293-16.688-30.023-16.688-48.199
	s6.25-34.906,16.688-48.199H0z"/>
<path fill="#FFFFFF" d="M317.512,344.297c10.438,13.293,16.688,30.023,16.688,48.199s-6.25,34.906-16.688,48.199H480.93
	c17.16,0,31.07-13.91,31.07-31.07v-65.328H317.512z"/>
<path fill="#FFFFFF" d="M256,344.297c-26.578,0-48.199,21.621-48.199,48.199s21.621,48.199,48.199,48.199
	s48.199-21.621,48.199-48.199S282.578,344.297,256,344.297z"/>
</svg>
