<?xml version="1.0" encoding="utf-8"?>
<!-- Generator: Adobe Illustrator 25.2.1, SVG Export Plug-In . SVG Version: 6.00 Build 0)  -->
<svg version="1.1" id="レイヤー_1" xmlns="http://www.w3.org/2000/svg" xmlns:xlink="http://www.w3.org/1999/xlink" x="0px"
	 y="0px" viewBox="0 0 113.4 113.4" style="enable-background:new 0 0 113.4 113.4;" xml:space="preserve">
<style type="text/css">
	.st0{fill:#040000;}
</style>
<g>
	<path class="st0" d="M56.8,26.6L56.8,26.6C56.7,26.6,56.7,26.6,56.8,26.6c-16.7,0-30.2,13.5-30.2,30.1c0,16.6,13.5,30.1,30.1,30.1
		c0,0,0,0,0,0c8,0,15.6-3.1,21.3-8.8c5.7-5.7,8.8-13.3,8.8-21.3c0-8-3.1-15.6-8.8-21.3C72.4,29.8,64.8,26.6,56.8,26.6z M72.7,56.7
		c0,8.8-7.2,16-16,16c-8.8,0-16-7.2-16-16s7.2-16,16-16S72.7,47.9,72.7,56.7z"/>
	<path class="st0" d="M113,34.2c0.2-9.1-3.2-17.7-9.5-24.4c-6.6-6.2-15.3-9.6-24.2-9.4c-9.1-0.5-36.1-0.5-45.1,0
		C25.1,0.2,16.5,3.6,9.8,9.9c-6.2,6.6-9.6,15.3-9.4,24.2c-0.5,9.1-0.5,36.1,0,45.1c-0.2,9.1,3.2,17.8,9.5,24.5
		c6.6,6.2,15.4,9.5,24.2,9.4c4.6,0.3,13.6,0.4,22.6,0.4c9,0,18-0.1,22.4-0.4c9.1,0.1,17.8-3.1,24.5-9.5c6.2-6.6,9.6-15.3,9.4-24.2
		C113.5,70.3,113.5,43.4,113,34.2z M99.3,60.6c0.1,8.1,0.2,21.7-2.1,27.4v0c-1.6,4.2-5,7.5-9.2,9.2c-5.8,2.3-19.3,2.1-27.4,2.1
		l-3.9,0l-3.8,0c-8.2,0.1-21.8,0.2-27.5-2.1c-4.2-1.6-7.5-5-9.2-9.2c-2.3-5.8-2.1-19.3-2.1-27.4l0-3.9l0-3.8
		c-0.1-8.1-0.2-21.8,2.1-27.5c1.6-4.2,5-7.5,9.2-9.1c5.8-2.3,19.3-2.1,27.4-2.1l3.9,0l3.8,0c8.1-0.1,21.8-0.2,27.5,2.1
		c4.2,1.6,7.5,5,9.2,9.2c2.3,5.8,2.1,19.3,2.1,27.4l0,3.9L99.3,60.6z"/>
	<path class="st0" d="M85.8,18.9C85.8,18.9,85.8,18.9,85.8,18.9c-4.8,0-8.7,3.9-8.7,8.7s3.9,8.7,8.7,8.7s8.7-3.9,8.7-8.7v0
		C94.5,22.8,90.6,18.9,85.8,18.9z"/>
</g>
</svg>
