<?xml version="1.0" encoding="utf-8"?>
<!-- Generator: Adobe Illustrator 16.0.0, SVG Export Plug-In . SVG Version: 6.00 Build 0)  -->
<!DOCTYPE svg PUBLIC "-//W3C//DTD SVG 1.1//EN" "http://www.w3.org/Graphics/SVG/1.1/DTD/svg11.dtd">
<svg version="1.1" id="Capa_1" xmlns="http://www.w3.org/2000/svg" xmlns:xlink="http://www.w3.org/1999/xlink" x="0px" y="0px"
	 width="134.49px" height="134.49px" viewBox="0 0 134.49 134.49" enable-background="new 0 0 134.49 134.49" xml:space="preserve">
<g>
	<g>
		<path d="M67.245,0C30.166,0,0,30.166,0,67.245s30.166,67.245,67.245,67.245s67.245-30.166,67.245-67.245
			C134.49,30.166,104.325,0,67.245,0z M67.245,119.792c-28.975,0-52.547-23.572-52.547-52.546c0-28.974,23.572-52.547,52.547-52.547
			c28.975,0,52.546,23.573,52.546,52.547C119.792,96.22,96.22,119.792,67.245,119.792z"/>
		<path d="M73.065,67.326V39.142c0-3.147-2.55-5.697-5.696-5.697c-3.146,0-5.697,2.55-5.697,5.697v30.004
			c0,0.09,0.022,0.173,0.026,0.263c-0.075,1.549,0.458,3.122,1.642,4.305L84.558,94.93c2.225,2.225,5.833,2.225,8.056,0
			c2.224-2.226,2.225-5.833,0-8.056L73.065,67.326z"/>
	</g>
</g>
</svg>
