<?xml version="1.0" encoding="utf-8"?>
<!-- Generator: Adobe Illustrator 25.2.1, SVG Export Plug-In . SVG Version: 6.00 Build 0)  -->
<svg version="1.1" id="レイヤー_1" xmlns="http://www.w3.org/2000/svg" xmlns:xlink="http://www.w3.org/1999/xlink" x="0px"
	 y="0px" viewBox="0 0 113.4 113.4" style="enable-background:new 0 0 113.4 113.4;" xml:space="preserve">
<style type="text/css">
	.st0{fill:#040000;}
</style>
<path class="st0" d="M101.7,0.2L13.8,0C6.2,0,0,6.2,0,13.8v85.7c0,7.6,6.2,13.8,13.8,13.8h35.6V72H34.1V58.9h15.3V43.4
	c0-13.6,7.5-21.3,20.6-21.3c3.8,0.1,7.6,0.3,11.4,0.9v10.8l-5.2,0C70.4,33,64.8,37.2,64,43.2c-0.1,0.8-0.1,1.6-0.1,2.2v13.5h16.4
	l-2,13.1H64v41.4h35.6c7.6,0,13.8-6.2,13.8-13.8V13.8C113.4,7,108.3,1.2,101.7,0.2z"/>
</svg>
