<?xml version="1.0" encoding="utf-8"?>
<!-- Generator: Adobe Illustrator 25.2.1, SVG Export Plug-In . SVG Version: 6.00 Build 0)  -->
<svg version="1.1" id="レイヤー_1" xmlns="http://www.w3.org/2000/svg" xmlns:xlink="http://www.w3.org/1999/xlink" x="0px"
	 y="0px" viewBox="0 0 113.4 113.4" style="enable-background:new 0 0 113.4 113.4;" xml:space="preserve">
<style type="text/css">
	.st0{fill:#040000;}
</style>
<path class="st0" d="M99.6,0H13.8C6.2,0,0,6.2,0,13.9v85.7c0,7.6,6.2,13.8,13.8,13.8h85.7c7.6,0,13.8-6.2,13.8-13.8V13.9
	C113.4,6.2,107.2,0,99.6,0z M86.4,39.1l-1,0.7l0.1,1.2c0,0.6,0,1.3,0,1.9c0.1,11.5-4.3,22.3-12.4,30.5c-8.1,8.2-18.8,12.7-30.3,12.8
	h-0.6c0,0-0.1,0-0.1,0c-5.4,0-10.8-1-15.7-3c5.9-0.8,11.6-3.2,16.3-7l4.8-3.7l-6.1-0.1c-4.8-0.1-9-2.6-11.5-6.5
	c1.4,0,2.9-0.2,4.3-0.6l-0.1-4.2c-5.3-1.1-9.4-5.2-10.6-10.3c1.5,0.4,3,0.7,4.6,0.8l7.6,0.3l-6.4-4.2c-3.9-2.6-6.2-6.9-6.1-11.5
	c0-1.4,0.2-2.8,0.6-4.1c8.4,8.9,19.9,14.3,32.2,14.9l2.9,0.1l-0.7-2.8c-1.8-7.4,2.9-14.9,10.3-16.6c4.8-1.2,9.9,0.4,13.3,4l0.8,0.9
	l1.2-0.2c1.5-0.3,2.9-0.7,4.3-1.1c-0.8,0.8-1.7,1.5-2.7,2.1l1.4,4c0.8-0.1,1.6-0.2,2.4-0.4C88.3,37.7,87.3,38.4,86.4,39.1z"/>
</svg>
