<?xml version="1.0" encoding="utf-8"?>
<!-- Generator: Adobe Illustrator 25.2.1, SVG Export Plug-In . SVG Version: 6.00 Build 0)  -->
<svg version="1.1" id="レイヤー_1" xmlns="http://www.w3.org/2000/svg" xmlns:xlink="http://www.w3.org/1999/xlink" x="0px"
	 y="0px" viewBox="0 0 32.3 41.5" style="enable-background:new 0 0 32.3 41.5;" xml:space="preserve">
<style type="text/css">
	.st0{fill:#103941;}
</style>
<path class="st0" d="M18.4,37.2h-6c-0.3,0-0.5-0.2-0.5-0.5V25.2h-4c-0.3,0-0.5-0.2-0.5-0.5v-6c0-0.3,0.2-0.5,0.5-0.5h4v-4
	c0-4.4,3.6-8,8-8h4.5c0.3,0,0.5,0.2,0.5,0.5v6c0,0.3-0.2,0.5-0.5,0.5h-4.5c-0.6,0-1,0.4-1,1v4h5.5c0.2,0,0.3,0.1,0.4,0.2
	c0.1,0.1,0.1,0.3,0.1,0.4l-1.5,6c-0.1,0.2-0.3,0.4-0.5,0.4h-4v11.5C18.9,37,18.7,37.2,18.4,37.2z M12.9,36.2h5V24.7
	c0-0.3,0.2-0.5,0.5-0.5h4.1l1.2-5h-5.4c-0.3,0-0.5-0.2-0.5-0.5v-4.5c0-1.1,0.9-2,2-2h4v-5h-4c-3.9,0-7,3.1-7,7v4.5
	c0,0.3-0.2,0.5-0.5,0.5h-4v5h4c0.3,0,0.5,0.2,0.5,0.5V36.2z"/>
</svg>
