<?xml version="1.0" encoding="utf-8"?>
<!-- Generator: Adobe Illustrator 25.2.1, SVG Export Plug-In . SVG Version: 6.00 Build 0)  -->
<svg version="1.1" id="レイヤー_1" xmlns="http://www.w3.org/2000/svg" xmlns:xlink="http://www.w3.org/1999/xlink" x="0px"
	 y="0px" viewBox="0 0 70.1 27.1" style="enable-background:new 0 0 70.1 27.1;" xml:space="preserve">
<style type="text/css">
	.st0{fill:#103941;}
</style>
<g>
	<path class="st0" d="M34.7,17.4H18.1c-0.2,0-0.3,0.2-0.3,0.3c0,0.2,0.2,0.3,0.3,0.3h16.7c0.2,0,0.3-0.2,0.3-0.3
		C35.1,17.5,34.9,17.4,34.7,17.4z"/>
	<path class="st0" d="M46.4,21.7h-15c-0.2,0-0.3,0.2-0.3,0.3s0.2,0.3,0.3,0.3h15c0.2,0,0.3-0.2,0.3-0.3S46.6,21.7,46.4,21.7z"/>
	<path class="st0" d="M52.2,17.4h-5.5c-0.2,0-0.3,0.2-0.3,0.3s0.2,0.3,0.3,0.3h5.5c0.2,0,0.3-0.2,0.3-0.3S52.3,17.4,52.2,17.4z"/>
	<path class="st0" d="M62.6,12.3H46.9l-5-3.2c-0.1,0-0.1-0.1-0.2-0.1l-4.1,0l-7.3-0.8c-0.1,0-0.1,0-0.2,0l-7.4,4H7.5
		c-0.2,0-0.3,0.2-0.3,0.3c0,0.2,0.2,0.3,0.3,0.3h39.3c0,0,0,0,0,0c0,0,0,0,0,0h15.8c0.2,0,0.3-0.2,0.3-0.3
		C62.9,12.5,62.8,12.3,62.6,12.3z"/>
</g>
</svg>
