<?xml version="1.0" encoding="utf-8"?>
<!-- Generator: Adobe Illustrator 16.0.0, SVG Export Plug-In . SVG Version: 6.00 Build 0)  -->
<!DOCTYPE svg PUBLIC "-//W3C//DTD SVG 1.1//EN" "http://www.w3.org/Graphics/SVG/1.1/DTD/svg11.dtd">
<svg version="1.1" id="レイヤー_1" xmlns="http://www.w3.org/2000/svg" xmlns:xlink="http://www.w3.org/1999/xlink" x="0px"
	 y="0px" width="580px" height="186px" viewBox="0 0 580 186" enable-background="new 0 0 580 186" xml:space="preserve">
<g>
	<g>
		<path fill-rule="evenodd" clip-rule="evenodd" fill="#231815" d="M165.42,87.25c-3.78,0-7.17-0.88-10.2-2.68
			c-3.03-1.79-5.41-4.29-7.14-7.51c-1.73-3.19-2.58-6.84-2.58-10.95c0-4.08,0.85-7.73,2.58-10.95c1.73-3.2,4.11-5.7,7.14-7.49
			c3.03-1.79,6.42-2.7,10.2-2.7c3.74,0,7.13,0.91,10.17,2.7c3.03,1.79,5.4,4.29,7.13,7.49c1.73,3.22,2.6,6.87,2.6,10.95
			c0,4.11-0.87,7.76-2.6,10.95c-1.73,3.22-4.1,5.72-7.13,7.51C172.55,86.37,169.16,87.25,165.42,87.25z M165.42,99.49
			c6.6,0,12.54-1.44,17.8-4.33c5.27-2.88,9.43-6.87,12.46-11.94c3.03-5.08,4.55-10.78,4.55-17.11s-1.52-12.01-4.55-17.09
			c-3.03-5.07-7.19-9.05-12.46-11.94c-5.26-2.88-11.2-4.34-17.8-4.34c-6.62,0-12.58,1.46-17.88,4.34
			c-5.3,2.89-9.45,6.87-12.45,11.94c-2.99,5.08-4.48,10.76-4.48,17.09s1.49,12.03,4.48,17.11c3,5.07,7.15,9.06,12.45,11.94
			C152.84,98.05,158.8,99.49,165.42,99.49z"/>
		<path fill-rule="evenodd" clip-rule="evenodd" fill="#231815" d="M269.52,57.21c0,3.69-1.16,6.56-3.44,8.59
			c-2.31,2.03-5.67,3.04-10.1,3.04h-11.99V45.58h11.99c4.43,0,7.79,1.01,10.1,3.01C268.36,50.59,269.52,53.46,269.52,57.21z
			 M285.61,98.38l-14.27-20.53c4.19-1.85,7.42-4.52,9.68-8.02c2.27-3.47,3.42-7.63,3.42-12.46c0-4.8-1.13-8.97-3.36-12.5
			c-2.26-3.51-5.44-6.24-9.6-8.15c-4.16-1.92-9.04-2.87-14.67-2.87h-27.54v64.53h14.72v-17.8h12.82h0.73l12.26,17.8H285.61z"/>
		<polygon fill-rule="evenodd" clip-rule="evenodd" fill="#231815" points="328.6,86.64 328.6,71.68 358.13,71.68 358.13,59.94 
			328.6,59.94 328.6,45.58 362.04,45.58 362.04,33.85 313.96,33.85 313.96,98.38 363.22,98.38 363.22,86.64 		"/>
		<polygon fill-rule="evenodd" clip-rule="evenodd" fill="#231815" points="436.91,33.85 436.91,73.17 405.28,33.85 393.11,33.85 
			393.11,98.38 407.64,98.38 407.64,59.42 439.37,98.38 451.46,98.38 451.46,33.85 		"/>
		<path fill-rule="evenodd" clip-rule="evenodd" fill="#231815" d="M515.26,87.25c-3.78,0-7.17-0.88-10.2-2.68
			c-3.03-1.79-5.41-4.29-7.14-7.51c-1.73-3.19-2.58-6.84-2.58-10.95c0-4.08,0.85-7.73,2.58-10.95c1.73-3.2,4.11-5.7,7.14-7.49
			c3.03-1.79,6.42-2.7,10.2-2.7c3.74,0,7.13,0.91,10.17,2.7c3.03,1.79,5.4,4.29,7.13,7.49c1.73,3.22,2.6,6.87,2.6,10.95
			c0,4.11-0.87,7.76-2.6,10.95c-1.73,3.22-4.1,5.72-7.13,7.51C522.39,86.37,519,87.25,515.26,87.25z M515.26,99.49
			c6.6,0,12.54-1.44,17.8-4.33c5.27-2.88,9.43-6.87,12.46-11.94c3.03-5.08,4.55-10.78,4.55-17.11s-1.52-12.01-4.55-17.09
			c-3.03-5.07-7.19-9.05-12.46-11.94c-5.26-2.88-11.2-4.34-17.8-4.34c-6.62,0-12.58,1.46-17.88,4.34
			c-5.3,2.89-9.45,6.87-12.45,11.94c-3,5.08-4.49,10.76-4.49,17.09s1.49,12.03,4.49,17.11c3,5.07,7.15,9.06,12.45,11.94
			C502.68,98.05,508.64,99.49,515.26,99.49z"/>
	</g>
	<g>
		<polygon fill-rule="evenodd" clip-rule="evenodd" fill="#231815" points="147.69,141.3 147.69,138.43 135.96,138.43 
			135.96,154.01 139.56,154.01 139.56,148.44 146.74,148.44 146.74,145.58 139.56,145.58 139.56,141.3 		"/>
		<path fill-rule="evenodd" clip-rule="evenodd" fill="#231815" d="M159.35,141.77v6.06c0,1.12-0.26,1.93-0.76,2.49
			s-1.16,0.84-1.98,0.84c-1.62,0-2.42-1-2.42-2.98v-6.41h-3.46v6.81c0,1.81,0.45,3.17,1.36,4.07c0.92,0.9,2.17,1.36,3.75,1.36
			c0.72,0,1.42-0.13,2.06-0.37c0.62-0.24,1.17-0.59,1.62-1.06v1.43h3.3v-12.24H159.35z"/>
		<polygon fill-rule="evenodd" clip-rule="evenodd" fill="#231815" points="175.86,154.01 180.06,154.01 174.65,146.97 
			179.62,141.77 175.5,141.77 170.44,146.71 170.44,137.32 166.98,137.32 166.98,154.01 170.44,154.01 170.44,150.89 172.11,149.24 
					"/>
		<path fill-rule="evenodd" clip-rule="evenodd" fill="#231815" d="M190.61,141.77v6.06c0,1.12-0.26,1.93-0.76,2.49
			s-1.16,0.84-1.98,0.84c-1.62,0-2.42-1-2.42-2.98v-6.41h-3.46v6.81c0,1.81,0.45,3.17,1.36,4.07c0.92,0.9,2.17,1.36,3.74,1.36
			c0.73,0,1.42-0.13,2.07-0.37c0.62-0.24,1.17-0.59,1.62-1.06v1.43h3.29v-12.24H190.61z"/>
		<path fill-rule="evenodd" clip-rule="evenodd" fill="#231815" d="M203.92,151.14c-0.9,0-1.63-0.3-2.2-0.89
			c-0.59-0.59-0.87-1.37-0.87-2.36c0-0.98,0.28-1.78,0.87-2.37c0.57-0.59,1.3-0.88,2.2-0.88c0.88,0,1.61,0.29,2.18,0.88
			c0.56,0.59,0.85,1.39,0.85,2.37c0,0.99-0.29,1.77-0.85,2.36C205.53,150.84,204.8,151.14,203.92,151.14z M203.92,154.01
			c1.25,0,2.37-0.26,3.36-0.79c0.99-0.52,1.77-1.23,2.32-2.17c0.55-0.92,0.85-1.98,0.85-3.16c0-1.18-0.3-2.23-0.85-3.17
			c-0.55-0.92-1.33-1.65-2.32-2.17c-0.99-0.52-2.11-0.78-3.36-0.78c-1.27,0-2.39,0.26-3.4,0.78c-1,0.52-1.78,1.25-2.33,2.17
			c-0.56,0.94-0.84,1.99-0.84,3.17c0,1.18,0.28,2.24,0.84,3.16c0.55,0.94,1.33,1.65,2.33,2.17
			C201.53,153.75,202.65,154.01,203.92,154.01z"/>
		<polygon fill-rule="evenodd" clip-rule="evenodd" fill="#231815" points="222.2,154.01 226.39,154.01 220.99,146.97 
			225.96,141.77 221.84,141.77 216.78,146.71 216.78,137.32 213.31,137.32 213.31,154.01 216.78,154.01 216.78,150.89 
			218.44,149.24 		"/>
		<path fill-rule="evenodd" clip-rule="evenodd" fill="#231815" d="M232.94,151.85c-0.62,0-1.09-0.1-1.43-0.33
			c-0.35-0.23-0.52-0.54-0.52-0.92c0-0.8,0.71-1.22,2.13-1.22h2.37v1.08c-0.21,0.45-0.54,0.8-0.99,1.04
			C234.05,151.75,233.53,151.85,232.94,151.85z M233.2,141.77c-0.97,0-1.9,0.14-2.8,0.4c-0.92,0.26-1.7,0.62-2.34,1.09l1.25,2.65
			c0.41-0.39,0.93-0.7,1.56-0.93c0.6-0.22,1.23-0.34,1.87-0.34c0.9,0,1.59,0.24,2.06,0.69c0.45,0.47,0.69,1.13,0.69,2h-2.75
			c-1.75,0-3.05,0.3-3.88,0.89c-0.83,0.59-1.25,1.41-1.25,2.43c0,0.66,0.17,1.24,0.54,1.74c0.34,0.5,0.86,0.9,1.54,1.18
			c0.66,0.3,1.45,0.44,2.39,0.44c1.77,0,2.98-0.49,3.64-1.5v1.5h3.22v-6.89c0-1.79-0.51-3.13-1.49-4.01
			C236.46,142.22,235.04,141.77,233.2,141.77z"/>
		<path fill-rule="evenodd" clip-rule="evenodd" fill="#231815" d="M257.34,154.01c1.36,0,2.57-0.21,3.66-0.66
			c1.09-0.46,2.01-1.1,2.75-1.95l-2.3-2.07c-1.06,1.22-2.36,1.81-3.9,1.81c-0.97,0-1.83-0.21-2.58-0.63
			c-0.76-0.42-1.35-0.99-1.76-1.74c-0.42-0.74-0.63-1.6-0.63-2.55c0-0.94,0.21-1.79,0.63-2.54c0.41-0.75,1-1.34,1.76-1.76
			c0.75-0.41,1.61-0.62,2.58-0.62c1.54,0,2.84,0.64,3.9,1.89l2.3-2.19c-0.74-0.83-1.66-1.46-2.73-1.91
			c-1.09-0.43-2.31-0.66-3.66-0.66c-1.59,0-3.03,0.35-4.31,1.01c-1.28,0.66-2.29,1.58-3.01,2.76c-0.73,1.18-1.1,2.52-1.1,4.02
			c0,1.49,0.37,2.83,1.1,4.01c0.72,1.19,1.73,2.12,3.01,2.79C254.33,153.68,255.75,154.01,257.34,154.01z"/>
		<path fill-rule="evenodd" clip-rule="evenodd" fill="#231815" d="M268.7,140.66c0.62,0,1.14-0.21,1.54-0.65
			c0.4-0.43,0.6-0.99,0.6-1.65c0-0.61-0.2-1.11-0.6-1.53c-0.4-0.42-0.92-0.62-1.54-0.62c-0.64,0-1.16,0.22-1.56,0.64
			c-0.4,0.43-0.59,0.95-0.59,1.58c0,0.63,0.19,1.16,0.59,1.58C267.54,140.45,268.06,140.66,268.7,140.66z M266.96,154.01h3.47
			v-12.24h-3.47V154.01z"/>
		<path fill-rule="evenodd" clip-rule="evenodd" fill="#231815" d="M281.05,149.7c-0.4,0.31-0.86,0.45-1.4,0.45
			c-0.49,0-0.85-0.14-1.11-0.42c-0.26-0.28-0.38-0.68-0.38-1.2v-5.01h2.98v-2.86h-2.98v-2.79h-3.46v2.79h-1.84v2.86h1.84v5.01
			c0,1.43,0.38,2.52,1.16,3.25c0.78,0.75,1.88,1.11,3.3,1.11c0.54,0,1.06-0.05,1.56-0.19c0.49-0.12,0.9-0.31,1.25-0.55L281.05,149.7
			z"/>
		<path fill-rule="evenodd" clip-rule="evenodd" fill="#231815" d="M293.44,141.77l-3.37,8.32l-3.35-8.32h-3.56l5.16,12.27
			l-0.06,0.12c-0.24,0.52-0.5,0.89-0.79,1.13c-0.3,0.21-0.68,0.33-1.14,0.33c-0.35,0-0.7-0.07-1.04-0.19
			c-0.35-0.14-0.66-0.31-0.92-0.54l-1.27,2.49c0.38,0.33,0.87,0.59,1.48,0.8c0.6,0.17,1.23,0.28,1.85,0.28
			c1.14,0,2.11-0.3,2.91-0.86c0.8-0.59,1.49-1.56,2.04-2.95l5.39-12.88H293.44z"/>
		<polygon fill-rule="evenodd" clip-rule="evenodd" fill="#231815" points="309.67,154.01 313.25,154.01 313.25,141.3 318.23,141.3 
			318.23,138.43 304.7,138.43 304.7,141.3 309.67,141.3 		"/>
		<path fill-rule="evenodd" clip-rule="evenodd" fill="#231815" d="M325.85,151.14c-0.9,0-1.63-0.3-2.2-0.89
			c-0.59-0.59-0.86-1.37-0.86-2.36c0-0.98,0.27-1.78,0.86-2.37c0.57-0.59,1.3-0.88,2.2-0.88c0.89,0,1.61,0.29,2.19,0.88
			c0.55,0.59,0.84,1.39,0.84,2.37c0,0.99-0.29,1.77-0.84,2.36C327.46,150.84,326.74,151.14,325.85,151.14z M325.85,154.01
			c1.25,0,2.38-0.26,3.36-0.79c0.99-0.52,1.77-1.23,2.32-2.17c0.56-0.92,0.85-1.98,0.85-3.16c0-1.18-0.29-2.23-0.85-3.17
			c-0.55-0.92-1.33-1.65-2.32-2.17c-0.98-0.52-2.11-0.78-3.36-0.78c-1.26,0-2.39,0.26-3.39,0.78c-1.01,0.52-1.79,1.25-2.34,2.17
			c-0.55,0.94-0.83,1.99-0.83,3.17c0,1.18,0.28,2.24,0.83,3.16c0.55,0.94,1.33,1.65,2.34,2.17
			C323.46,153.75,324.59,154.01,325.85,154.01z"/>
		<path fill-rule="evenodd" clip-rule="evenodd" fill="#231815" d="M343.8,141.77v6.06c0,1.12-0.26,1.93-0.76,2.49
			s-1.16,0.84-1.97,0.84c-1.63,0-2.43-1-2.43-2.98v-6.41h-3.46v6.81c0,1.81,0.45,3.17,1.37,4.07c0.91,0.9,2.16,1.36,3.74,1.36
			c0.73,0,1.42-0.13,2.06-0.37c0.62-0.24,1.18-0.59,1.63-1.06v1.43h3.29v-12.24H343.8z"/>
		<path fill-rule="evenodd" clip-rule="evenodd" fill="#231815" d="M354.74,143.37v-1.6h-3.31v12.24h3.47v-5.9
			c0-1.14,0.27-2.01,0.83-2.6c0.55-0.58,1.33-0.87,2.34-0.87c0.12,0,0.38,0.03,0.77,0.08v-2.95c-0.93,0-1.74,0.14-2.44,0.42
			C355.71,142.46,355.16,142.85,354.74,143.37z"/>
		<path fill-rule="evenodd" clip-rule="evenodd" fill="#231815" d="M363.8,140.66c0.63,0,1.15-0.21,1.55-0.65
			c0.39-0.43,0.6-0.99,0.6-1.65c0-0.61-0.21-1.11-0.6-1.53c-0.4-0.42-0.92-0.62-1.55-0.62c-0.64,0-1.16,0.22-1.55,0.64
			c-0.4,0.43-0.59,0.95-0.59,1.58c0,0.63,0.19,1.16,0.59,1.58C362.64,140.45,363.16,140.66,363.8,140.66z M362.07,154.01h3.47
			v-12.24h-3.47V154.01z"/>
		<path fill-rule="evenodd" clip-rule="evenodd" fill="#231815" d="M373.41,154.01c1.16,0,2.16-0.14,3.01-0.46
			c0.85-0.31,1.49-0.74,1.94-1.3c0.45-0.56,0.68-1.2,0.68-1.91c0-0.84-0.25-1.5-0.7-1.98c-0.45-0.47-0.98-0.8-1.61-0.98
			c-0.62-0.17-1.42-0.34-2.39-0.5c-0.88-0.14-1.52-0.28-1.92-0.42s-0.59-0.38-0.59-0.75c0-0.31,0.17-0.55,0.56-0.76
			c0.36-0.21,0.91-0.31,1.66-0.31c1.23,0,2.37,0.29,3.43,0.87l1.16-2.59c-0.56-0.35-1.25-0.63-2.08-0.84s-1.68-0.31-2.51-0.31
			c-1.15,0-2.13,0.15-2.96,0.47c-0.84,0.31-1.48,0.76-1.91,1.32c-0.45,0.57-0.66,1.22-0.66,1.95c0,0.88,0.23,1.56,0.7,2.03
			c0.46,0.47,1.02,0.8,1.66,0.97c0.62,0.19,1.44,0.37,2.41,0.51c0.83,0.1,1.43,0.22,1.83,0.36c0.4,0.14,0.61,0.38,0.61,0.7
			c0,0.71-0.73,1.06-2.18,1.06c-0.73,0-1.48-0.09-2.24-0.28c-0.76-0.19-1.4-0.45-1.92-0.77l-1.14,2.54c0.55,0.4,1.29,0.73,2.25,0.99
			C371.43,153.88,372.4,154.01,373.41,154.01z"/>
		<path fill-rule="evenodd" clip-rule="evenodd" fill="#231815" d="M389.02,149.7c-0.4,0.31-0.87,0.45-1.4,0.45
			c-0.49,0-0.85-0.14-1.11-0.42c-0.26-0.28-0.38-0.68-0.38-1.2v-5.01h2.98v-2.86h-2.98v-2.79h-3.47v2.79h-1.83v2.86h1.83v5.01
			c0,1.43,0.38,2.52,1.16,3.25c0.78,0.75,1.89,1.11,3.31,1.11c0.54,0,1.06-0.05,1.56-0.19c0.49-0.12,0.9-0.31,1.25-0.55
			L389.02,149.7z"/>
		<rect x="400.45" y="138.43" fill-rule="evenodd" clip-rule="evenodd" fill="#231815" width="3.6" height="15.58"/>
		<path fill-rule="evenodd" clip-rule="evenodd" fill="#231815" d="M415.89,141.77c-0.83,0-1.58,0.14-2.26,0.38
			c-0.67,0.24-1.24,0.59-1.69,1.04v-1.42h-3.31v12.24h3.46v-6.07c0-1.08,0.25-1.91,0.77-2.47c0.52-0.56,1.21-0.83,2.09-0.83
			c0.78,0,1.37,0.24,1.79,0.73c0.41,0.48,0.62,1.2,0.62,2.17v6.47h3.46v-6.91c0-1.75-0.46-3.07-1.37-3.98
			C418.55,142.22,417.36,141.77,415.89,141.77z"/>
		<path fill-rule="evenodd" clip-rule="evenodd" fill="#231815" d="M428.61,141.4c0-0.8,0.52-1.21,1.57-1.21
			c0.52,0,0.99,0.1,1.41,0.31l0.9-2.49c-0.32-0.21-0.71-0.38-1.16-0.5c-0.47-0.12-0.96-0.19-1.48-0.19c-1.47,0-2.61,0.36-3.41,1.08
			c-0.81,0.71-1.21,1.68-1.21,2.9v0.47h-1.84v2.87h1.84v9.37h3.46v-9.37h2.98v-2.87h-3.06V141.4z"/>
		<path fill-rule="evenodd" clip-rule="evenodd" fill="#231815" d="M440.03,151.14c-0.9,0-1.63-0.3-2.2-0.89
			c-0.59-0.59-0.87-1.37-0.87-2.36c0-0.98,0.28-1.78,0.87-2.37c0.57-0.59,1.3-0.88,2.2-0.88c0.88,0,1.61,0.29,2.18,0.88
			c0.55,0.59,0.85,1.39,0.85,2.37c0,0.99-0.3,1.77-0.85,2.36C441.64,150.84,440.91,151.14,440.03,151.14z M440.03,154.01
			c1.24,0,2.37-0.26,3.36-0.79c0.98-0.52,1.76-1.23,2.32-2.17c0.55-0.92,0.85-1.98,0.85-3.16c0-1.18-0.3-2.23-0.85-3.17
			c-0.56-0.92-1.34-1.65-2.32-2.17c-0.99-0.52-2.12-0.78-3.36-0.78c-1.27,0-2.39,0.26-3.4,0.78c-1,0.52-1.78,1.25-2.34,2.17
			c-0.55,0.94-0.83,1.99-0.83,3.17c0,1.18,0.28,2.24,0.83,3.16c0.56,0.94,1.34,1.65,2.34,2.17
			C437.64,153.75,438.76,154.01,440.03,154.01z"/>
		<path fill-rule="evenodd" clip-rule="evenodd" fill="#231815" d="M452.73,143.37v-1.6h-3.31v12.24h3.47v-5.9
			c0-1.14,0.27-2.01,0.83-2.6c0.55-0.58,1.33-0.87,2.34-0.87c0.12,0,0.38,0.03,0.77,0.08v-2.95c-0.93,0-1.74,0.14-2.44,0.42
			C453.7,142.46,453.15,142.85,452.73,143.37z"/>
		<path fill-rule="evenodd" clip-rule="evenodd" fill="#231815" d="M475.34,141.77c-0.9,0-1.71,0.15-2.46,0.47
			c-0.74,0.31-1.35,0.76-1.84,1.34c-0.41-0.6-0.97-1.03-1.64-1.34c-0.69-0.32-1.46-0.47-2.29-0.47c-0.76,0-1.47,0.12-2.11,0.36
			c-0.66,0.25-1.2,0.59-1.63,1.05v-1.41h-3.31v12.24h3.47v-6.16c0-1.06,0.22-1.86,0.71-2.4c0.47-0.54,1.11-0.81,1.9-0.81
			c1.49,0,2.25,0.97,2.25,2.9v6.47h3.47v-6.16c0-1.06,0.22-1.86,0.71-2.4c0.47-0.54,1.11-0.81,1.92-0.81c0.73,0,1.28,0.24,1.68,0.73
			c0.38,0.48,0.59,1.2,0.59,2.17v6.47h3.46v-6.91c0-1.77-0.45-3.11-1.33-3.99C478.01,142.22,476.83,141.77,475.34,141.77z"/>
		<path fill-rule="evenodd" clip-rule="evenodd" fill="#231815" d="M488.56,151.85c-0.62,0-1.09-0.1-1.44-0.33
			c-0.34-0.23-0.52-0.54-0.52-0.92c0-0.8,0.71-1.22,2.14-1.22h2.37v1.08c-0.21,0.45-0.54,0.8-0.99,1.04
			C489.67,151.75,489.15,151.85,488.56,151.85z M488.82,141.77c-0.97,0-1.9,0.14-2.8,0.4c-0.92,0.26-1.7,0.62-2.34,1.09l1.24,2.65
			c0.42-0.39,0.94-0.7,1.56-0.93c0.61-0.22,1.23-0.34,1.87-0.34c0.9,0,1.6,0.24,2.07,0.69c0.45,0.47,0.69,1.13,0.69,2h-2.76
			c-1.75,0-3.04,0.3-3.88,0.89c-0.83,0.59-1.24,1.41-1.24,2.43c0,0.66,0.17,1.24,0.53,1.74c0.35,0.5,0.87,0.9,1.55,1.18
			c0.65,0.3,1.45,0.44,2.39,0.44c1.76,0,2.97-0.49,3.63-1.5v1.5h3.22v-6.89c0-1.79-0.5-3.13-1.48-4.01
			C492.08,142.22,490.66,141.77,488.82,141.77z"/>
		<path fill-rule="evenodd" clip-rule="evenodd" fill="#231815" d="M504.75,149.7c-0.4,0.31-0.87,0.45-1.41,0.45
			c-0.48,0-0.85-0.14-1.11-0.42c-0.26-0.28-0.38-0.68-0.38-1.2v-5.01h2.98v-2.86h-2.98v-2.79h-3.46v2.79h-1.84v2.86h1.84v5.01
			c0,1.43,0.38,2.52,1.16,3.25c0.78,0.75,1.89,1.11,3.31,1.11c0.53,0,1.05-0.05,1.56-0.19c0.48-0.12,0.9-0.31,1.24-0.55
			L504.75,149.7z"/>
		<path fill-rule="evenodd" clip-rule="evenodd" fill="#231815" d="M510.35,140.66c0.62,0,1.14-0.21,1.54-0.65
			c0.4-0.43,0.6-0.99,0.6-1.65c0-0.61-0.2-1.11-0.6-1.53s-0.92-0.62-1.54-0.62c-0.64,0-1.16,0.22-1.56,0.64
			c-0.4,0.43-0.59,0.95-0.59,1.58c0,0.63,0.19,1.16,0.59,1.58C509.19,140.45,509.71,140.66,510.35,140.66z M508.62,154.01h3.46
			v-12.24h-3.46V154.01z"/>
		<path fill-rule="evenodd" clip-rule="evenodd" fill="#231815" d="M521.61,151.14c-0.9,0-1.63-0.3-2.2-0.89
			c-0.59-0.59-0.86-1.37-0.86-2.36c0-0.98,0.27-1.78,0.86-2.37c0.57-0.59,1.3-0.88,2.2-0.88c0.89,0,1.61,0.29,2.18,0.88
			c0.56,0.59,0.85,1.39,0.85,2.37c0,0.99-0.29,1.77-0.85,2.36C523.22,150.84,522.5,151.14,521.61,151.14z M521.61,154.01
			c1.25,0,2.38-0.26,3.36-0.79c0.99-0.52,1.771-1.23,2.32-2.17c0.56-0.92,0.85-1.98,0.85-3.16c0-1.18-0.29-2.23-0.85-3.17
			c-0.55-0.92-1.33-1.65-2.32-2.17c-0.979-0.52-2.11-0.78-3.36-0.78c-1.26,0-2.39,0.26-3.39,0.78c-1.01,0.52-1.79,1.25-2.34,2.17
			c-0.55,0.94-0.83,1.99-0.83,3.17c0,1.18,0.28,2.24,0.83,3.16c0.55,0.94,1.33,1.65,2.34,2.17
			C519.22,153.75,520.35,154.01,521.61,154.01z"/>
		<path fill-rule="evenodd" clip-rule="evenodd" fill="#231815" d="M538.26,141.77c-0.83,0-1.57,0.14-2.25,0.38
			c-0.67,0.24-1.24,0.59-1.7,1.04v-1.42h-3.3v12.24h3.46v-6.07c0-1.08,0.24-1.91,0.76-2.47c0.52-0.56,1.22-0.83,2.1-0.83
			c0.78,0,1.37,0.24,1.78,0.73c0.42,0.48,0.63,1.2,0.63,2.17v6.47h3.46v-6.91c0-1.75-0.47-3.07-1.37-3.98
			C540.93,142.22,539.74,141.77,538.26,141.77z"/>
	</g>
	<path fill="#231815" d="M578,186H120.01c-0.644,0-1.248-0.31-1.624-0.833l-52.01-72.319c-0.245-0.34-0.376-0.749-0.376-1.168V24
		c0-1.104,0.896-2,2-2s2,0.896,2,2v87.036L121.035,182H576V4H2C0.896,4,0,3.104,0,2s0.896-2,2-2h576c1.104,0,2,0.896,2,2v182
		C580,185.104,579.104,186,578,186z"/>
</g>
</svg>
