<?xml version="1.0" encoding="utf-8"?>
<!-- Generator: Adobe Illustrator 25.2.1, SVG Export Plug-In . SVG Version: 6.00 Build 0)  -->
<svg version="1.1" id="レイヤー_1" xmlns="http://www.w3.org/2000/svg" xmlns:xlink="http://www.w3.org/1999/xlink" x="0px"
	 y="0px" viewBox="0 0 366.8 10.1" style="enable-background:new 0 0 366.8 10.1;" xml:space="preserve">
<style type="text/css">
	.st0{fill:#FFFFFF;}
</style>
<path class="st0" d="M0,0v9.5c2.2,0.4,4.5,0.6,6.7,0.6c6.5,0,12.4-1.7,16-4.5c3.5,2.8,9.5,4.5,16,4.5c1.7,0,3.3-0.1,5-0.3
	c1.5-0.2,3-0.5,4.5-1c2.8-0.8,5.1-2,6.8-3.4c1.7,1.4,4,2.6,6.8,3.4c1.5,0.4,3,0.8,4.5,1c1.6,0.2,3.3,0.3,5,0.3
	c6.5,0,12.4-1.7,16-4.5c3.5,2.8,9.5,4.5,16,4.5c1.6,0,3.3-0.1,4.9-0.3c1.5-0.2,3-0.5,4.4-0.9c2.7-0.8,5.1-2,6.8-3.3
	c1.7,1.4,4,2.5,6.7,3.3c1.4,0.4,2.9,0.7,4.4,0.9c1.6,0.2,3.2,0.3,4.9,0.3c1.6,0,3.3-0.1,4.9-0.3c1.5-0.2,3-0.5,4.4-1
	c2.8-0.8,5.1-2,6.8-3.4c1.7,1.4,4,2.6,6.8,3.4c1.5,0.4,3,0.8,4.5,1c1.6,0.2,3.3,0.3,5,0.3c1.6,0,3.3-0.1,4.9-0.3
	c1.5-0.2,3-0.5,4.4-0.9c2.7-0.8,5.1-2,6.8-3.3c1.7,1.4,4,2.5,6.7,3.3c1.4,0.4,2.9,0.7,4.4,0.9c1.6,0.2,3.2,0.3,4.9,0.3
	c1.6,0,3.3-0.1,4.9-0.3c1.5-0.2,3-0.5,4.4-1c2.8-0.8,5.1-2,6.8-3.4c1.7,1.4,4,2.6,6.8,3.4c1.5,0.4,3,0.8,4.5,1
	c1.6,0.2,3.3,0.3,5,0.3c6.5,0,12.4-1.7,16-4.5c3.5,2.8,9.5,4.5,16,4.5c1.6,0,3.3-0.1,4.9-0.3c1.5-0.2,3-0.5,4.4-0.9
	c2.7-0.8,5.1-2,6.8-3.4c1.7,1.4,4,2.5,6.8,3.4c1.5,0.4,2.9,0.7,4.4,0.9c1.6,0.2,3.3,0.3,4.9,0.3c1.6,0,3.3-0.1,4.9-0.3
	c1.5-0.2,3-0.5,4.4-0.9c2.7-0.8,5.1-2,6.8-3.4c1.7,1.4,4,2.5,6.8,3.4c1.5,0.4,2.9,0.7,4.4,0.9c1.6,0.2,3.3,0.3,4.9,0.3
	c1.6,0,3.3-0.1,4.9-0.3c1.5-0.2,3-0.5,4.4-0.9c2.7-0.8,5.1-2,6.8-3.3c1.7,1.4,4,2.5,6.7,3.3c1.4,0.4,2.9,0.7,4.4,0.9
	c1.6,0.2,3.2,0.3,4.9,0.3c2.1,0,4.2-0.2,6.3-0.6V0H0z"/>
</svg>
