<?xml version="1.0" encoding="utf-8"?>
<!-- Generator: Adobe Illustrator 25.2.1, SVG Export Plug-In . SVG Version: 6.00 Build 0)  -->
<svg version="1.1" id="レイヤー_1" xmlns="http://www.w3.org/2000/svg" xmlns:xlink="http://www.w3.org/1999/xlink" x="0px"
	 y="0px" viewBox="0 0 326.4 86.2" style="enable-background:new 0 0 326.4 86.2;" xml:space="preserve">
<style type="text/css">
	.st0{enable-background:new    ;}
	.st1{fill:#FFFFFF;}
</style>
<g class="st0">
	<path class="st1" d="M1.6,83.3C0.1,82.5,0,82.1,0,79.1c0-5.5,0.4-9.9,0.5-11.7c0.1-1.2,0.3-1.8,0.9-1.8c0.7,0,0.8,0.3,0.8,1.2
		c0,1,0,2.5,0.3,4.1c1.7,8.1,8.9,11.2,16.3,11.2c10.6,0,15.7-7.6,15.7-14.6c0-7.6-3.2-12-12.6-19.8l-5-4.1
		C5.3,34.1,2.6,27.3,2.6,19.8C2.6,8,11.4,0,25.4,0c4.3,0,7.5,0.4,10.2,1.1c2.1,0.4,3,0.5,3.9,0.5c0.9,0,1.1,0.2,1.1,0.8
		s-0.4,4.2-0.4,11.7c0,1.8-0.2,2.5-0.8,2.5c-0.7,0-0.8-0.5-0.9-1.4c-0.1-1.3-0.8-4.3-1.4-5.5c-0.7-1.2-3.6-5.8-13.8-5.8
		c-7.6,0-13.5,4.7-13.5,12.8c0,6.3,2.9,10.2,13.4,18.5l3.1,2.4c13,10.2,16.1,17,16.1,25.9c0,4.5-1.8,12.9-9.3,18.3
		c-4.7,3.3-10.7,4.6-16.6,4.6C11.2,86.2,6.2,85.5,1.6,83.3z"/>
	<path class="st1" d="M109.2,4.3c1.3-3.6,1.8-4.3,2.4-4.3s1.1,0.5,2.4,4c1.7,4.2,18.9,49.6,25.6,66.3c4,9.8,7.2,11.5,9.5,12.2
		c1.6,0.5,3.3,0.7,4.4,0.7c0.7,0,1.1,0.1,1.1,0.7c0,0.7-1,0.9-2.2,0.9c-1.7,0-9.7,0-17.3-0.2c-2.1-0.1-3.3-0.1-3.3-0.8
		c0-0.4,0.3-0.7,0.8-0.8c0.7-0.2,1.3-1.2,0.7-3l-10.2-27.1c-0.2-0.4-0.4-0.7-1-0.7H98.4c-0.6,0-0.9,0.3-1.1,0.9l-6.6,19.5
		c-1,2.8-1.5,5.4-1.5,7.4c0,2.2,2.3,3.2,4.2,3.2h1.1c0.8,0,1.1,0.2,1.1,0.7c0,0.7-0.7,0.9-1.7,0.9c-2.6,0-7.4-0.3-8.6-0.3
		c-1.2,0-7.3,0.3-12.4,0.3c-1.4,0-2.1-0.2-2.1-0.9c0-0.4,0.4-0.7,1-0.7c0.8,0,2.3-0.1,3.2-0.2c5.1-0.7,7.3-4.8,9.2-10.3L109.2,4.3z
		 M120.7,48.3c0.5,0,0.5-0.3,0.4-0.8l-10.5-29.7c-0.5-1.6-1.1-1.6-1.6,0l-9.7,29.7c-0.2,0.6,0,0.8,0.3,0.8H120.7z"/>
	<path class="st1" d="M207.5,71.3c6.4-14.7,21.1-53.1,23.5-61.1c0.6-1.6,1-3.2,1-4.2c0-0.9-0.3-2-1.4-2.5c-1.3-0.4-3-0.4-4.2-0.4
		c-0.7,0-1.2-0.1-1.2-0.7c0-0.7,0.7-0.9,2.4-0.9c4.4,0,9.5,0.3,10.8,0.3c0.7,0,5.4-0.3,8.6-0.3c1.2,0,1.9,0.2,1.9,0.8
		s-0.4,0.8-1.3,0.8c-0.8,0-3.2,0-5.3,1.3c-1.4,1-3.1,2.9-6.1,10.3c-1.2,3.1-6.7,16.3-12.3,29.8c-6.7,16.1-11.7,27.9-14.2,33.3
		c-3.1,6.6-3.5,8.4-4.6,8.4c-1.3,0-1.9-1.5-4-6.8l-27-67.4c-2.4-6.2-4.1-7.4-7.9-8.5c-1.7-0.4-3.5-0.4-4.2-0.4s-0.9-0.3-0.9-0.8
		c0-0.7,1.1-0.8,2.9-0.8c5.3,0,11.6,0.3,12.9,0.3c1.1,0,6-0.3,10.2-0.3c2,0,3,0.2,3,0.8s-0.3,0.8-1.1,0.8c-1.2,0-3.2,0.1-4.2,0.5
		c-1.2,0.5-1.4,1.4-1.4,2.2c0,1.4,1.3,4.8,3,9.1L207.5,71.3z"/>
	<path class="st1" d="M287.2,33.4c0-17.2,0-20.2-0.2-23.8c-0.2-3.7-1.1-5.5-4.7-6.3c-0.9-0.2-2.8-0.3-3.7-0.3
		c-0.4,0-0.9-0.2-0.9-0.7c0-0.7,0.5-0.9,1.8-0.9c2.5,0,5.5,0,7.9,0.1l4.5,0.2c0.8,0,22.7,0,25.2-0.1c2.1-0.1,3.9-0.3,4.7-0.5
		c0.5-0.1,1-0.6,1.5-0.6c0.3,0,0.4,0.4,0.4,1c0,0.8-0.5,2.1-0.9,5.2c-0.1,1.1-0.3,5.9-0.5,7.3c-0.1,0.5-0.3,1.2-0.8,1.2
		c-0.7,0-0.9-0.6-0.9-1.4c0-0.8-0.1-2.6-0.7-4c-0.8-1.8-1.9-3.1-7.8-3.7c-1.9-0.2-13.9-0.3-15.1-0.3c-0.4,0-0.7,0.3-0.7,1.1v30.4
		c0,0.8,0.1,1.1,0.7,1.1c1.4,0,15,0,17.5-0.2c2.6-0.2,4.2-0.4,5.2-1.5c0.8-0.9,1.2-1.4,1.7-1.4c0.3,0,0.5,0.2,0.5,0.9
		s-0.5,2.5-0.9,6.2c-0.2,2.2-0.4,6.3-0.4,7c0,0.9,0,2.1-0.8,2.1c-0.5,0-0.8-0.4-0.8-1c0-1.1,0-2.2-0.4-3.6c-0.4-1.5-1.4-3.4-5.7-3.9
		c-3-0.3-13.9-0.5-15.7-0.5c-0.5,0-0.8,0.3-0.8,0.8v9.7c0,3.7-0.1,16.5,0,18.8c0.3,7.6,2,9,12.8,9c2.9,0,7.7,0,10.6-1.2
		s4.2-3.4,5-7.9c0.2-1.2,0.4-1.7,1-1.7c0.7,0,0.7,0.9,0.7,1.7c0,0.9-0.9,8.4-1.4,10.7c-0.8,2.9-1.6,2.9-5.9,2.9
		c-8.2,0-14.3-0.2-18.6-0.3c-4.3-0.2-6.9-0.3-8.6-0.3c-0.2,0-2.1,0-4.4,0.1c-2.2,0-4.7,0.2-6.4,0.2c-1.2,0-1.8-0.2-1.8-0.9
		c0-0.3,0.2-0.7,0.9-0.7c1,0,2.3-0.2,3.3-0.4c2.2-0.4,2.8-2.9,3.2-6c0.6-4.6,0.6-13.3,0.6-23.9V33.4z"/>
</g>
</svg>
