<?xml version="1.0" encoding="utf-8"?>
<!-- Generator: Adobe Illustrator 25.2.1, SVG Export Plug-In . SVG Version: 6.00 Build 0)  -->
<svg version="1.1" id="レイヤー_1" xmlns="http://www.w3.org/2000/svg" xmlns:xlink="http://www.w3.org/1999/xlink" x="0px"
	 y="0px" viewBox="0 0 462.9 86.2" style="enable-background:new 0 0 462.9 86.2;" xml:space="preserve">
<style type="text/css">
	.st0{enable-background:new    ;}
	.st1{fill:#FFFFFF;}
</style>
<g class="st0">
	<path class="st1" d="M9.6,33.4c0-17.2,0-20.2-0.2-23.8C9.1,5.9,8.2,4.2,4.6,3.4C3.7,3.2,1.9,3.1,0.9,3.1C0.4,3.1,0,2.9,0,2.4
		c0-0.7,0.5-0.9,1.8-0.9c5,0,11.4,0.3,12.1,0.3c1,0,7.4-0.3,10.7-0.3c1.2,0,1.8,0.2,1.8,0.9c0,0.4-0.4,0.7-0.9,0.7
		c-0.8,0-1.4,0.1-2.8,0.3c-3,0.6-3.9,2.4-4.1,6.3c-0.2,3.5-0.2,6.6-0.2,23.8V40h0.4c1.9-2.1,21.8-22.3,25.7-26.6
		c3.1-3.2,5.9-6,5.9-7.9c0-1.3-0.6-2-1.4-2.3c-0.5-0.2-1-0.4-1-0.9c0-0.5,0.6-0.8,1.3-0.8c2.2,0,5.6,0.3,8.2,0.3
		c0.5,0,7.8-0.3,10.6-0.3c1.2,0,1.6,0.2,1.6,0.8s-0.2,0.8-1.1,0.8c-1.6,0-4,0.5-6.2,1.5c-4.5,2-6.9,4.7-11.9,9.5
		C48,16.7,28.8,35.4,26.5,38.2c2.9,3.2,25.7,26.8,30.3,31c9.2,8.6,11.1,10.3,16.4,12.5c2.9,1.2,6,1.4,6.8,1.4s1.4,0.2,1.4,0.7
		c0,0.5-0.6,0.9-2.4,0.9h-5.6c-3.1,0-5.2,0-7.6-0.2c-5.8-0.6-8.6-3-13.3-6.7c-5-4.1-28.3-29.3-33.6-35.8h-0.5v10.8
		c0,10.6,0,19.2,0.5,23.9c0.3,3.2,1,5.6,4.3,6c1.5,0.2,3.3,0.4,4.3,0.4c0.7,0,0.9,0.3,0.9,0.7c0,0.5-0.5,0.9-1.8,0.9
		c-5.4,0-11.8-0.3-12.7-0.3c-0.9,0-7.3,0.3-10.6,0.3c-1.2,0-1.8-0.2-1.8-0.9c0-0.3,0.2-0.7,0.9-0.7c1,0,2.3-0.2,3.3-0.4
		c2.2-0.4,2.8-2.9,3.2-6C9.6,72,9.6,63.4,9.6,52.8V33.4z"/>
	<path class="st1" d="M117.3,69.7c0.2,9,1.3,11.9,4.3,12.8c2.1,0.5,4.5,0.7,5.5,0.7c0.5,0,0.9,0.2,0.9,0.7c0,0.7-0.7,0.9-2,0.9
		c-6.3,0-10.7-0.3-11.7-0.3c-1,0-5.6,0.3-10.6,0.3c-1.1,0-1.8-0.1-1.8-0.9c0-0.4,0.3-0.7,0.9-0.7c0.9,0,2.9-0.1,4.5-0.7
		c2.8-0.8,3.3-4,3.3-14l0.1-63c0-4.3,0.3-5.5,1.2-5.5s2.8,2.4,3.9,3.5c1.6,1.9,18,19.6,35,37.7c10.9,11.7,22.9,25.1,26.4,28.7
		L176,14.1c-0.1-7.2-0.9-9.6-4.3-10.5c-2-0.4-4.5-0.5-5.4-0.5c-0.8,0-0.9-0.3-0.9-0.8c0-0.7,0.9-0.8,2.2-0.8
		c4.9,0,10.2,0.3,11.4,0.3s4.8-0.3,9.4-0.3c1.2,0,2,0.1,2,0.8c0,0.4-0.4,0.8-1.2,0.8c-0.6,0-1.3,0-2.6,0.3c-3.6,0.8-4.1,3.2-4.1,9.8
		l-0.2,64.5c0,7.3-0.2,7.8-1,7.8c-0.9,0-2.2-1.2-8-7c-1.2-1.1-17.1-17.3-28.7-29.8C131.8,34.9,119.3,21,115.8,17L117.3,69.7z"/>
	<path class="st1" d="M268.5,0c24.8,0,43.2,15.6,43.2,41.2c0,24.6-17.4,45-43.9,45c-30.1,0-42.7-23.4-42.7-43.2
		C225.2,25.2,238.1,0,268.5,0z M270.8,82.1c9.9,0,30.4-5.7,30.4-37.7c0-26.4-16.1-40.6-33.4-40.6c-18.4,0-32.1,12.1-32.1,36.2
		C235.6,65.6,251,82.1,270.8,82.1z"/>
	<path class="st1" d="M428,69.5h0.4c3-10.1,13.1-42,16.9-56.1c1.1-4.1,1.2-5.6,1.2-7c0-2-1.2-3.3-6.3-3.3c-0.5,0-1-0.3-1-0.8
		c0-0.5,0.5-0.8,1.9-0.8c5.6,0,10.2,0.3,11.2,0.3c0.8,0,5.5-0.3,8.9-0.3c1,0,1.5,0.2,1.5,0.7c0,0.6-0.3,0.9-1,0.9
		c-0.4,0-2.5,0.1-3.7,0.5c-3.3,1.2-5.1,5.8-7.2,11.9c-4.8,14-16,49-20.2,61.3c-2.9,8.1-3.4,9.5-4.6,9.5c-1.1,0-1.8-1.4-3.3-5.7
		l-21.6-61.3h-0.2c-4,10.6-19,50.9-23,61.2c-1.8,4.6-2.3,5.8-3.6,5.8c-1.1,0-1.6-1.2-3.8-8.7L351,12.3c-1.8-5.8-3.2-7.5-6-8.6
		c-1.4-0.5-4.2-0.7-5-0.7c-0.5,0-1-0.1-1-0.8c0-0.5,0.7-0.8,1.8-0.8c5.7,0,11.8,0.3,13,0.3c1,0,5.8-0.3,11.3-0.3c1.5,0,2,0.3,2,0.8
		c0,0.7-0.5,0.8-1.1,0.8c-0.9,0-3,0-4.3,0.7c-0.7,0.3-1.4,1.2-1.4,2.6c0,1.4,1,5.3,2.1,10.1c1.6,7,13.1,47.4,14.7,53.2h0.2
		l23.3-62.8c1.6-4.5,2.1-5.1,2.8-5.1c0.8,0,1.4,1.4,2.8,5.2L428,69.5z"/>
</g>
</svg>
