<?xml version="1.0" encoding="utf-8"?>
<!-- Generator: Adobe Illustrator 25.2.1, SVG Export Plug-In . SVG Version: 6.00 Build 0)  -->
<svg version="1.1" id="レイヤー_1" xmlns="http://www.w3.org/2000/svg" xmlns:xlink="http://www.w3.org/1999/xlink" x="0px"
	 y="0px" viewBox="0 0 85.5 30.7" style="enable-background:new 0 0 85.5 30.7;" xml:space="preserve">
<style type="text/css">
	.st0{enable-background:new    ;}
	.st1{fill:#103941;}
</style>
<g>
	<g class="st0">
		<path class="st1" d="M28.6,27.6l0.1,1.7c-0.8,0.5-1.4,0.7-2.6,0.7c-2.2,0-3.7-1.5-3.7-3.9c0-2.4,1.5-3.9,3.7-3.9
			c1.1,0,1.9,0.1,2.6,0.7l-0.1,1.7h-0.1c-0.3-1.8-1.4-2.2-2.3-2.2c-1.1,0-2.3,0.5-2.3,3.7c0,3.3,1.3,3.7,2.3,3.7
			c0.9,0,2.2-0.5,2.3-2.2H28.6z"/>
		<path class="st1" d="M36.3,29.9c-2.4,0-3.5-1.7-3.5-3.8c0-2.1,1.1-3.9,3.5-3.9c2.4,0,3.5,1.8,3.5,3.9
			C39.8,28.3,38.7,29.9,36.3,29.9z M36.3,22.3c-1.3,0-2.3,0.8-2.3,3.8c0,2.9,1,3.7,2.3,3.7c1.3,0,2.2-0.7,2.2-3.7
			C38.6,23.2,37.6,22.3,36.3,22.3z"/>
		<path class="st1" d="M49.5,27.5v2.3h-5.4v-0.1c0.5,0,0.6-0.4,0.6-1.1v-5.2c0-0.7-0.2-0.9-0.7-0.9v-0.1h2.6v0.1
			c-0.5,0-0.8,0.2-0.8,1v6.3h0.4c1.1,0,3,0,3.2-2.2H49.5z"/>
		<path class="st1" d="M54.3,27.3v-3.9c0-0.7-0.3-0.9-0.8-0.9v-0.1h2.7v0.1c-0.5,0-0.8,0.1-0.8,0.9v4c0,1.3,0.8,2.1,2,2.1
			c1.1,0,1.9-0.8,1.9-2.1v-2.9c0-1,0-2-1.3-2v-0.1h2.8v0.1c-1.4,0-1.4,1-1.4,2v2.9c0,1.9-1.3,2.6-2.6,2.6
			C55.4,29.9,54.3,29,54.3,27.3z"/>
		<path class="st1" d="M73.7,29.7v0.1h-2.7v-0.1c0.5,0,0.8-0.2,0.8-1.1v-5.9l-2.6,7.2H69l-3-6.6v3.8c0,1.2,0.2,2.5,1.4,2.5v0.1h-3
			v-0.1c1.3,0,1.5-1.3,1.5-2.5v-4c-0.4-0.7-0.9-0.7-1.2-0.7v-0.1h2.1l2.8,6.1l2.1-6.1h1.9v0.1c-0.5,0-0.8,0.2-0.8,0.9v5.2
			C72.8,29.5,73.2,29.7,73.7,29.7z"/>
		<path class="st1" d="M85.5,22.3v0.1C83.9,22.4,84,24,84,25v4.9h-0.3L79.1,24v3.2c0,0.9,0,2.5,1.4,2.5v0.1h-3.1v-0.1
			c1.6,0,1.6-1.6,1.6-2.5v-3.4l-0.4-0.6c-0.7-0.9-1-0.8-1.3-0.8v-0.1h2l4.6,6V25c0-1,0-2.5-1.4-2.5v-0.1H85.5z"/>
	</g>
	<path id="パス_866" class="st1" d="M23.4,3.4C23.1,2.3,24,1,24.5,0.6c0.1-0.1,0.1-0.4,0-0.5C24.4,0,24.2,0,24.1,0
		c-3.5,1.8-6.7,4.1-9.6,6.7C8.8,12.1,4.3,18.8,1.6,26.2c0,0-0.4,1-0.8,2c-0.2,0.5-0.4,1-0.5,1.4c-0.1,0.2-0.1,0.4-0.2,0.5
		c-0.1,0.2-0.2,0.5,0.1,0.6c0,0,0,0,0.1,0c0.1,0,0.3,0,0.4-0.3c0.5-1.2,1.7-2,3-2.2c0.2,0,0.3-0.2,0.3-0.3c0-0.1,0-0.1-0.1-0.2
		c-0.4-0.5-0.6-1.3-0.3-1.9c0.1-0.2,0-0.3-0.2-0.4c-0.2-0.1-0.3,0-0.4,0.2c-0.3,0.7-0.2,1.5,0.1,2.1c-0.6,0.1-1.2,0.4-1.7,0.8
		c0.3-0.7,0.6-1.4,0.8-2C4.9,19.1,9.3,12.6,15,7.2c2.5-2.3,5.3-4.3,8.2-6c-0.4,0.7-0.6,1.5-0.4,2.3c0.2,0.7,0.5,2.3-0.4,3.4
		c-0.1,0.1-0.2,0.2-0.3,0.3c-0.5-0.6-1.2-0.9-2-1c-0.8-0.1-1.7,0.2-2.4,0.7c-0.3,0.2-0.5,0.6-0.5,1c0,0.3,0.1,0.6,0.3,0.8
		c0.5,0.3,1.1,0.5,1.6,0.4c1-0.1,1.9-0.4,2.8-1c0.7,1.4-0.3,3.6-1.3,4.6c-0.4,0.3-0.8,0.6-1.2,0.9c-0.6-1.5-2.2-2.2-3.7-1.7
		c-0.5,0.2-1,0.6-1.1,1.2c-0.1,0.4,0,0.8,0.3,1.2c0.5,0.5,1.1,0.7,1.8,0.6c0.8,0,1.6-0.2,2.3-0.4c0,1.2-0.5,2.3-1.4,3.1
		c-0.4,0.4-0.8,0.7-1.3,0.9c-0.5-0.6-1.2-1-2-1.1c-1-0.2-2.1,0-3,0.6c-0.3,0.2-0.5,0.5-0.6,0.9c0,0.2,0,0.5,0.2,0.7
		c0.3,0.3,0.7,0.5,1.1,0.5c1.4,0.2,2.9-0.1,4.1-0.7c0.1,0.2,0.2,0.5,0.3,0.7c0,0.2,0.1,0.4,0.1,0.6c0,0.3,0,0.5-0.1,0.8
		c-0.5,1.5-2.1,2.2-2.8,2.5C11.3,24.6,9,24.4,7,23.5c0.1-0.2,0-0.3-0.2-0.4c0,0-0.1,0-0.1,0L6,22.9c-0.2,0-0.3,0.1-0.3,0.3
		c0,0.1,0,0.2,0.1,0.3c2.3,1.5,5.2,1.8,7.8,0.9c1.5-0.4,2.7-1.5,3.2-2.9c0.1-0.3,0.1-0.6,0.1-1c0-0.2,0-0.5-0.1-0.7
		c-0.1-0.3-0.2-0.6-0.3-0.8c0.5-0.3,0.9-0.6,1.4-1c1.1-1,1.7-2.4,1.6-3.8c0.6-0.3,1.1-0.6,1.5-1.1c1.1-1.1,2.4-3.6,1.4-5.4l0-0.1
		c0.1-0.1,0.3-0.3,0.4-0.4C23.9,6.1,23.6,4.2,23.4,3.4z M19.1,8.6c-0.4,0.1-0.8,0-1.1-0.3c-0.1-0.1-0.1-0.2-0.1-0.3
		c0-0.2,0.1-0.4,0.3-0.5C18.6,7,19.3,6.8,20,6.9c0.1,0,0.1,0,0.2,0c0.5,0.1,1,0.4,1.3,0.8C20.8,8.2,19.9,8.5,19.1,8.6z M16.5,14.3
		c-0.5,0.1-0.9-0.1-1.3-0.4c-0.1-0.2-0.2-0.4-0.1-0.6c0.1-0.4,0.4-0.6,0.8-0.8c0.4-0.1,0.8-0.2,1.1-0.1c0.2,0,0.4,0.1,0.6,0.2
		c0.5,0.3,0.9,0.7,1.1,1.2C18,14.2,17.3,14.3,16.5,14.3L16.5,14.3z M11.9,19.4c-0.2,0-0.5-0.1-0.6-0.2c0-0.1-0.1-0.1,0-0.2
		c0-0.2,0.2-0.3,0.3-0.4c0.8-0.5,1.7-0.6,2.6-0.5c0,0,0.1,0,0.1,0c0.5,0.1,1,0.4,1.3,0.8C14.4,19.4,13.1,19.6,11.9,19.4L11.9,19.4z"
		/>
</g>
</svg>
