<?xml version="1.0" encoding="utf-8"?>
<!-- Generator: Adobe Illustrator 25.2.1, SVG Export Plug-In . SVG Version: 6.00 Build 0)  -->
<svg version="1.1" id="レイヤー_1" xmlns="http://www.w3.org/2000/svg" xmlns:xlink="http://www.w3.org/1999/xlink" x="0px"
	 y="0px" viewBox="0 0 372.6 163.8" style="enable-background:new 0 0 372.6 163.8;" xml:space="preserve">
<style type="text/css">
	.st0{fill:#FFFFFF;}
	.st1{fill:#FFFFFF;enable-background:new    ;}
</style>
<path id="パス_175" class="st0" d="M0,116.6c2.2-0.6,28.2-4.5,36.6-8.4s11.9-13.4,11.9-13.4s9,7,15.7,10s16.2,6.7,16.2,6.7
	s-19.7-1.4-30.4-6.7c-5.1,6-9.5,8.1-20.4,10.4S0,116.6,0,116.6z"/>
<path id="パス_176" class="st0" d="M59.2,88.7c2.2-0.6,28.2-4.5,36.6-8.4S107.7,67,107.7,67s9,7,15.7,10s16.2,6.7,16.2,6.7
	s-19.7-1.4-30.4-6.7c-5.1,6-9.5,8.1-20.4,10.4S59.2,88.7,59.2,88.7z"/>
<path id="パス_177" class="st0" d="M66.2,134c2.2-0.6,28.2-4.5,36.6-8.4s11.9-13.4,11.9-13.4s9,7,15.7,10s16.2,6.7,16.2,6.7
	s-19.7-1.4-30.4-6.7c-5.1,6-9.5,8.1-20.4,10.4S66.2,134,66.2,134z"/>
<path id="パス_175-2" class="st0" d="M226,49.6c2.2-0.6,28.2-4.5,36.6-8.4s11.9-13.4,11.9-13.4s9,7,15.7,10s16.2,6.7,16.2,6.7
	s-19.7-1.4-30.4-6.7c-5.1,6-9.5,8.1-20.4,10.4S226,49.6,226,49.6z"/>
<path id="パス_176-2" class="st0" d="M285.2,21.7c2.2-0.6,28.2-4.5,36.6-8.4S333.7,0,333.7,0s9,7,15.7,10s16.2,6.7,16.2,6.7
	s-19.7-1.4-30.4-6.7c-5.1,6-9.5,8.1-20.4,10.4S285.2,21.7,285.2,21.7z"/>
<path id="パス_177-2" class="st0" d="M292.2,67c2.2-0.6,28.2-4.5,36.6-8.4s11.9-13.4,11.9-13.4s9,7,15.7,10s16.2,6.7,16.2,6.7
	s-19.7-1.4-30.4-6.7c-5.1,6-9.5,8.1-20.4,10.4S292.2,67,292.2,67z"/>
<path id="パス_179" class="st1" d="M179,158.9c12-2.5,24.2-14.8,24.2-14.8s19.7,18.7,41.4,16.5s41.9-20.5,41.9-20.5
	s12.6,13.1,43,12.1c-16.3,2.6-23.7,8-42.7-3c-15.8,10.3-62.4,17.9-82.6,4.3c-28,12.5-59,10.1-59,10.1S167,161.4,179,158.9z"/>
</svg>
