<?xml version="1.0" encoding="utf-8"?>
<!-- Generator: Adobe Illustrator 25.2.1, SVG Export Plug-In . SVG Version: 6.00 Build 0)  -->
<svg version="1.1" id="レイヤー_1" xmlns="http://www.w3.org/2000/svg" xmlns:xlink="http://www.w3.org/1999/xlink" x="0px"
	 y="0px" viewBox="0 0 404.5 86.2" style="enable-background:new 0 0 404.5 86.2;" xml:space="preserve">
<style type="text/css">
	.st0{enable-background:new    ;}
	.st1{fill:#FFFFFF;}
</style>
<g class="st0">
	<path class="st1" d="M46.3,71.3c6.4-14.7,21.1-53.1,23.5-61.1c0.6-1.6,1-3.2,1-4.2c0-0.9-0.3-2-1.4-2.5c-1.3-0.4-3-0.4-4.2-0.4
		C64.6,3.1,64,3,64,2.4c0-0.7,0.7-0.9,2.4-0.9c4.4,0,9.5,0.3,10.8,0.3c0.7,0,5.4-0.3,8.6-0.3c1.2,0,1.9,0.2,1.9,0.8
		s-0.4,0.8-1.3,0.8c-0.8,0-3.2,0-5.3,1.3c-1.4,1-3.1,2.9-6.1,10.3c-1.2,3.1-6.7,16.3-12.3,29.8C56,60.6,51,72.5,48.5,77.9
		c-3.1,6.6-3.5,8.4-4.6,8.4c-1.3,0-1.9-1.5-4-6.8L13,12c-2.4-6.2-4.1-7.4-7.9-8.5C3.4,3.1,1.5,3.1,0.9,3.1S0,2.8,0,2.3
		c0-0.7,1.1-0.8,2.9-0.8c5.3,0,11.6,0.3,12.9,0.3c1.1,0,6-0.3,10.2-0.3c2,0,3,0.2,3,0.8s-0.3,0.8-1.1,0.8c-1.2,0-3.2,0.1-4.2,0.5
		c-1.2,0.5-1.4,1.4-1.4,2.2c0,1.4,1.3,4.8,3,9.1L46.3,71.3z"/>
	<path class="st1" d="M135.3,52.8c0,10.6,0,19.2,0.5,23.9c0.3,3.2,1,5.6,4.3,6c1.5,0.2,4,0.4,5,0.4c0.7,0,0.9,0.3,0.9,0.7
		c0,0.5-0.5,0.9-1.8,0.9c-6.1,0-13-0.3-13.5-0.3c-0.6,0-7.5,0.3-10.8,0.3c-1.2,0-1.8-0.2-1.8-0.9c0-0.3,0.2-0.7,0.9-0.7
		c1,0,2.3-0.2,3.3-0.4c2.2-0.4,2.8-2.9,3.2-6c0.5-4.6,0.5-13.3,0.5-23.9V33.4c0-17.2,0-20.2-0.2-23.8c-0.2-3.7-1.3-5.6-3.7-6.2
		c-1.2-0.3-2.6-0.4-3.4-0.4c-0.4,0-0.9-0.2-0.9-0.7c0-0.7,0.5-0.9,1.8-0.9c3.6,0,10.6,0.3,11.1,0.3c0.5,0,7.5-0.3,10.8-0.3
		c1.2,0,1.8,0.2,1.8,0.9c0,0.4-0.4,0.7-0.9,0.7c-0.8,0-1.4,0.1-2.8,0.3c-3,0.6-3.9,2.4-4.1,6.3c-0.2,3.5-0.2,6.6-0.2,23.8V52.8z"/>
	<path class="st1" d="M189.4,83.3c-1.5-0.8-1.6-1.2-1.6-4.2c0-5.5,0.4-9.9,0.5-11.7c0.1-1.2,0.3-1.8,0.9-1.8c0.7,0,0.8,0.3,0.8,1.2
		c0,1,0,2.5,0.3,4.1c1.7,8.1,8.9,11.2,16.3,11.2c10.6,0,15.7-7.6,15.7-14.6c0-7.6-3.2-12-12.6-19.8l-5-4.1
		c-11.7-9.6-14.3-16.4-14.3-23.9C190.4,8,199.2,0,213.2,0c4.3,0,7.5,0.4,10.2,1.1c2.1,0.4,3,0.5,3.8,0.5s1.1,0.2,1.1,0.8
		s-0.4,4.2-0.4,11.7c0,1.8-0.2,2.5-0.8,2.5c-0.7,0-0.8-0.5-0.9-1.4c-0.1-1.3-0.8-4.3-1.4-5.5s-3.6-5.8-13.8-5.8
		c-7.6,0-13.5,4.7-13.5,12.8c0,6.3,2.9,10.2,13.4,18.5l3.1,2.4c13,10.2,16.1,17,16.1,25.9c0,4.5-1.8,12.9-9.4,18.3
		c-4.7,3.3-10.7,4.6-16.6,4.6C199,86.2,193.9,85.5,189.4,83.3z"/>
	<path class="st1" d="M290.4,52.8c0,10.6,0,19.2,0.5,23.9c0.3,3.2,1,5.6,4.3,6c1.5,0.2,4,0.4,5,0.4c0.7,0,0.9,0.3,0.9,0.7
		c0,0.5-0.5,0.9-1.8,0.9c-6,0-13-0.3-13.5-0.3s-7.5,0.3-10.8,0.3c-1.2,0-1.8-0.2-1.8-0.9c0-0.3,0.2-0.7,0.9-0.7c1,0,2.3-0.2,3.3-0.4
		c2.2-0.4,2.8-2.9,3.2-6c0.5-4.6,0.5-13.3,0.5-23.9V33.4c0-17.2,0-20.2-0.2-23.8c-0.2-3.7-1.3-5.6-3.7-6.2c-1.2-0.3-2.6-0.4-3.4-0.4
		c-0.4,0-0.9-0.2-0.9-0.7c0-0.7,0.5-0.9,1.8-0.9c3.6,0,10.6,0.3,11.1,0.3s7.5-0.3,10.8-0.3c1.2,0,1.8,0.2,1.8,0.9
		c0,0.4-0.4,0.7-0.9,0.7c-0.8,0-1.4,0.1-2.8,0.3c-3,0.6-3.8,2.4-4.1,6.3c-0.2,3.5-0.2,6.6-0.2,23.8V52.8z"/>
	<path class="st1" d="M375,52.8c0,10.6,0,19.2,0.6,23.9c0.3,3.2,1,5.6,4.3,6c1.5,0.2,4,0.4,5,0.4c0.7,0,0.9,0.3,0.9,0.7
		c0,0.5-0.6,0.9-1.8,0.9c-6,0-13-0.3-13.5-0.3c-0.6,0-7.5,0.3-10.8,0.3c-1.2,0-1.8-0.2-1.8-0.9c0-0.3,0.2-0.7,0.9-0.7
		c1,0,2.3-0.2,3.3-0.4c2.2-0.4,2.8-2.9,3.2-6c0.6-4.6,0.6-13.3,0.6-23.9V6.3l-16.3,0.2c-6.8,0.1-9.5,0.9-11.2,3.5
		c-1.2,1.9-1.5,2.6-1.9,3.4c-0.3,0.9-0.7,1.1-1.1,1.1c-0.3,0-0.5-0.3-0.5-1c0-1.1,2.2-10.6,2.4-11.4c0.2-0.7,0.7-2.1,1.1-2.1
		c0.8,0,1.9,1.1,4.8,1.3c3.2,0.3,7.4,0.6,8.7,0.6H393c3.5,0,6-0.2,7.8-0.6c1.7-0.2,2.6-0.5,3.1-0.5c0.5,0,0.5,0.7,0.5,1.3
		c0,3.3-0.3,10.9-0.3,12.1c0,1-0.3,1.4-0.8,1.4c-0.5,0-0.8-0.3-0.9-1.9l-0.1-1.2c-0.3-3.3-3-5.8-13.5-6.1L375,6.3V52.8z"/>
</g>
</svg>
