<?xml version="1.0" encoding="utf-8"?>
<!-- Generator: Adobe Illustrator 25.2.1, SVG Export Plug-In . SVG Version: 6.00 Build 0)  -->
<svg version="1.1" id="レイヤー_1" xmlns="http://www.w3.org/2000/svg" xmlns:xlink="http://www.w3.org/1999/xlink" x="0px"
	 y="0px" viewBox="0 0 595.8 73.7" style="enable-background:new 0 0 595.8 73.7;" xml:space="preserve">
<style type="text/css">
	.st0{enable-background:new    ;}
	.st1{fill:#FFFFFF;}
</style>
<g class="st0">
	<path class="st1" d="M56.5,48.6c0-7.6-0.2-8.7-4.2-9.5c-0.8-0.1-2.4-0.2-3.3-0.2c-0.3,0-0.8-0.4-0.8-0.8c0-0.7,0.4-0.8,1.5-0.8
		c4.4,0,10.9,0.2,11.4,0.2c0.4,0,6.5-0.2,9.5-0.2c1.1,0,1.5,0.1,1.5,0.8c0,0.3-0.4,0.8-0.8,0.8c-0.7,0-1.3,0-2.4,0.2
		c-2.6,0.4-3.4,1.9-3.6,5.2c-0.1,3-0.1,5.7-0.1,9.7v10.5c0,4.3-0.1,4.4-1.3,5.1c-6.2,3.2-15,4.2-20.6,4.2c-7.4,0-21.1-0.9-31.9-10
		C5.6,58.7,0,48.7,0,37.1c0-15,7.6-25.5,16.2-30.7c8.7-5.3,18.4-5.9,25.7-5.9c6.2,0,13,1.1,14.8,1.5c2,0.4,5.4,1,7.8,1
		c1,0,1.2,0.4,1.2,0.9c0,1.3-0.6,3.9-0.6,13.2c0,1.5-0.4,2-1.1,2c-0.5,0-0.7-0.6-0.7-1.4c-0.1-1.2-0.7-4-2.2-6.2
		c-2.4-3.5-9.8-7.3-22.3-7.3c-5.8,0-12.9,0.4-20.2,6c-5.6,4.3-9.6,12.7-9.6,23.5C9.1,47,16,56.4,19.4,59.6
		c7.7,7.2,15.8,9.8,24.8,9.8c3.4,0,7.9-0.3,10.5-1.8c1.2-0.7,2-1.1,2-2.9V48.6z"/>
	<path class="st1" d="M131.2,3.6c1.2-3.1,1.6-3.6,2.3-3.6c1,0,1.3,1.3,2.3,3.4c1.8,4,17.3,42.6,23.2,56.8c3.5,8.4,6.2,9.6,8.2,10.2
		c1.4,0.4,2.9,0.5,3.8,0.5c0.6,0,1.2,0.2,1.2,0.8c0,0.6-1.1,0.8-2.2,0.8c-1.4,0-8.6,0-15.3-0.2c-1.9-0.1-3.4-0.1-3.4-0.7
		c0-0.4,0.2-0.4,0.7-0.7c0.5-0.2,1.5-1,0.9-2.5L144.3,47c-0.2-0.4-0.3-0.5-0.9-0.5h-22.3c-0.4,0-0.8,0.2-1,0.8l-5.5,15
		c-0.9,2.3-1.4,4.6-1.4,6.3c0,1.9,1.6,2.5,3.3,2.5h0.9c0.8,0,1,0.3,1,0.8c0,0.6-0.5,0.8-1.4,0.8c-2.3,0-7.6-0.3-8.7-0.3
		c-1,0-5.8,0.3-9.8,0.3c-1.2,0-1.9-0.2-1.9-0.8c0-0.4,0.4-0.8,0.9-0.8c0.7,0,2.1-0.1,2.9-0.2c4.4-0.6,6.3-3.9,8.1-8.6L131.2,3.6z
		 M142,42.6c0.4,0,0.4-0.2,0.3-0.7l-9.6-25.6c-0.5-1.4-1.1-1.4-1.7,0l-9,25.6c-0.1,0.4,0,0.7,0.3,0.7H142z"/>
	<path class="st1" d="M215.9,45.5c0,13.8,0.2,19.4,2,21c1.5,1.5,5.3,2.2,12.9,2.2c5.1,0,9.4-0.1,11.7-2.9c1.2-1.4,2-3.4,2.3-5.3
		c0.1-0.7,0.4-1.2,1-1.2c0.4,0,0.7,0.4,0.7,1.4s-0.7,6.6-1.4,9.3c-0.7,2.2-1,2.5-6.2,2.5c-6.9,0-12.3-0.1-16.8-0.3
		c-4.4-0.1-7.7-0.2-10.6-0.2c-0.4,0-2.1,0-4,0.1c-2,0.1-4.1,0.2-5.6,0.2c-1,0-1.5-0.2-1.5-0.8c0-0.3,0.2-0.8,0.8-0.8
		c0.9,0,2.1-0.2,3-0.4c1.9-0.4,2.1-2.2,2.5-4.9c0.6-3.9,0.6-11.2,0.6-20.2V28.8c0-14.5,0-17.2-0.2-20.1c-0.2-3.2-0.8-4.7-4-5.2
		c-0.8-0.1-2.4-0.2-3.3-0.2c-0.3,0-0.8-0.4-0.8-0.8c0-0.5,0.4-0.8,1.5-0.8c4.4,0,10.5,0.2,11,0.2c0.4,0,7.7-0.2,10.7-0.2
		c1,0,1.5,0.2,1.5,0.8c0,0.3-0.4,0.7-0.8,0.7c-0.7,0-2.1,0.1-3.2,0.2c-2.9,0.5-3.4,2-3.6,5.3c-0.1,3-0.1,5.6-0.1,20.1V45.5z"/>
	<path class="st1" d="M296.8,45.5c0,13.8,0.2,19.4,2,21c1.5,1.5,5.3,2.2,12.9,2.2c5.1,0,9.3-0.1,11.7-2.9c1.2-1.4,2-3.4,2.3-5.3
		c0.1-0.7,0.4-1.2,1-1.2c0.4,0,0.7,0.4,0.7,1.4s-0.7,6.6-1.4,9.3c-0.7,2.2-1,2.5-6.2,2.5c-6.9,0-12.3-0.1-16.8-0.3
		c-4.4-0.1-7.7-0.2-10.6-0.2c-0.4,0-2.1,0-4,0.1c-2,0.1-4.1,0.2-5.6,0.2c-1,0-1.5-0.2-1.5-0.8c0-0.3,0.2-0.8,0.8-0.8
		c0.9,0,2.1-0.2,3-0.4c1.9-0.4,2.1-2.2,2.5-4.9c0.6-3.9,0.6-11.2,0.6-20.2V28.8c0-14.5,0-17.2-0.2-20.1c-0.2-3.2-0.8-4.7-4-5.2
		c-0.8-0.1-2.4-0.2-3.3-0.2c-0.3,0-0.8-0.4-0.8-0.8c0-0.5,0.4-0.8,1.5-0.8c4.4,0,10.5,0.2,11,0.2c0.4,0,7.7-0.2,10.7-0.2
		c1,0,1.5,0.2,1.5,0.8c0,0.3-0.4,0.7-0.8,0.7c-0.7,0-2.1,0.1-3.2,0.2c-2.9,0.5-3.4,2-3.6,5.3c-0.1,3-0.1,5.6-0.1,20.1V45.5z"/>
	<path class="st1" d="M368.8,28.8c0-14.5,0-17.2-0.2-20.1c-0.2-3.2-0.8-4.7-4-5.2c-0.8-0.1-2.4-0.2-3.3-0.2c-0.3,0-0.8-0.4-0.8-0.8
		c0-0.5,0.4-0.8,1.5-0.8c4.4,0,10.7,0.2,11.2,0.2c0.7,0,20.9,0.1,23.1,0c1.9-0.1,3.6-0.4,4.4-0.5c0.4-0.1,0.9-0.4,1.3-0.4
		c0.3,0,0.4,0.4,0.4,0.9c0,0.7-0.5,1.8-0.8,4.4c-0.1,0.9-0.3,5.1-0.5,6.2c-0.1,0.4-0.4,1-0.9,1c-0.5,0-0.8-0.4-0.8-1.2
		c0-0.7-0.1-2.2-0.6-3.3c-0.7-1.5-1.6-2.2-6.9-2.9c-1.7-0.2-12.9-0.3-14-0.3c-0.4,0-0.5,0.3-0.5,1v25.4c0,0.7,0,1,0.5,1
		c1.2,0,14,0,16.2-0.2c2.3-0.2,3.7-0.3,4.7-1.3c0.7-0.7,1.1-1.2,1.4-1.2s0.5,0.2,0.5,0.8s-0.5,2.1-0.8,5.2c-0.2,1.9-0.4,5.4-0.4,6
		c0,0.8-0.2,1.8-0.9,1.8c-0.4,0-0.7-0.3-0.7-0.9c0-0.9,0-1.9-0.4-3.1c-0.3-1.3-1.2-2.4-4.9-2.9c-2.6-0.3-13-0.4-14.6-0.4
		c-0.5,0-0.7,0.3-0.7,0.7v7.8c0,3.2-0.1,14.1,0,16c0.2,6.3,2,7.5,11.5,7.5c2.5,0,7.1,0,9.7-1c2.5-1.1,3.9-2.8,4.4-6.5
		c0.2-1.1,0.4-1.4,1-1.4c0.5,0,0.7,0.8,0.7,1.4c0,0.7-0.8,7-1.3,9c-0.7,2.4-1.7,2.4-5.4,2.4c-7.3,0-12.9-0.2-16.8-0.3
		c-4.1-0.2-6.6-0.2-8-0.2c-0.2,0-2.1,0-4.2,0.1c-1.9,0.1-4.1,0.2-5.6,0.2c-1,0-1.5-0.2-1.5-0.8c0-0.3,0.2-0.8,0.8-0.8
		c0.9,0,2.1-0.3,3-0.4c1.9-0.3,2.1-2.2,2.5-4.9c0.5-3.9,0.5-11.2,0.5-20.2V28.8z"/>
	<path class="st1" d="M451.4,28.8c0-14.5,0-17.2-0.2-20.1c-0.2-3.2-0.8-4.7-4-5.2c-0.8-0.1-2.4-0.2-3.3-0.2c-0.3,0-0.8-0.4-0.8-0.8
		c0-0.5,0.4-0.8,1.5-0.8c4.4,0,10.9,0.2,11.4,0.2c1,0,9.1-0.2,12.1-0.2c6.2,0,13,0.5,18,4.1c2.4,1.8,6.7,6.3,6.7,12.8
		c0,6.9-2.9,13.6-11.9,21.3c7.9,9.9,14.6,18.4,20.2,24.2c5.2,5.3,8.4,6.2,10.8,6.5C514,71,515,71,515.6,71s0.9,0.4,0.9,0.8
		c0,0.6-0.5,0.8-2.3,0.8h-6c-5.5,0-7.9-0.5-10.3-1.9c-4.2-2.2-7.7-6.7-13.2-13.8c-4.1-5.1-8.4-11.1-10.5-13.6
		c-0.4-0.4-0.7-0.6-1.3-0.6l-12.3-0.2c-0.4,0-0.7,0.2-0.7,0.8v2.2c0,9,0,16.3,0.4,20.1c0.3,2.8,0.9,4.5,3.8,4.9
		c1.3,0.2,3.4,0.4,4.3,0.4c0.7,0,0.8,0.4,0.8,0.8c0,0.4-0.4,0.8-1.5,0.8c-5.3,0-11.4-0.3-11.9-0.3c-0.1,0-6.6,0.3-9.6,0.3
		c-1,0-1.5-0.2-1.5-0.8c0-0.3,0.2-0.8,0.8-0.8c0.9,0,2.1-0.2,3-0.4c1.9-0.4,2.1-2.2,2.5-4.9c0.5-3.9,0.5-11.2,0.5-20.2V28.8z
		 M459.8,36.7c0,0.5,0.2,0.9,0.7,1.2c1.4,0.8,6.4,1.4,10.7,1.4c2.3,0,5-0.1,7.3-1.7c3.3-2.2,5.8-7.1,5.8-14.3
		c0-11.7-6.4-18.4-16.7-18.4c-2.9,0-5.9,0.3-6.9,0.5c-0.4,0.2-0.8,0.6-0.8,1.1V36.7z"/>
	<path class="st1" d="M556.4,48.2c0-5.1-0.7-6.9-2.1-9.6c-0.8-1.4-13.9-22.2-17.2-27.2c-2.3-3.5-4.6-5.6-6.4-6.8
		c-1.4-0.9-3.3-1.3-4.1-1.3c-0.5,0-1-0.4-1-0.9c0-0.4,0.3-0.7,1.2-0.7c1.9,0,9.1,0.2,9.6,0.2c0.7,0,4.6-0.2,8.4-0.2
		c1.1,0,1.3,0.2,1.3,0.7c0,0.3-0.7,0.7-1.5,1c-0.8,0.3-1.2,0.8-1.2,1.5c0,1.3,0.7,2.4,1.3,3.6l17.6,29.1c2-4,14.1-24,15.8-27.1
		c1.2-2.1,1.7-3.6,1.7-4.8c0-1.3-0.4-2.1-1.5-2.4c-0.9-0.2-1.4-0.7-1.4-1.1c0-0.3,0.5-0.5,1.5-0.5c2.5,0,5.9,0.2,6.7,0.2
		c0.7,0,7.6-0.2,9.5-0.2c0.7,0,1.2,0.2,1.2,0.5c0,0.4-0.4,1-1.2,1c-1.1,0-3,0.3-4.5,1.2c-1.9,1.1-2.8,2.1-4.8,4.6
		c-3.2,3.7-16.8,25.7-18.8,29.7c-1.7,3.3-1.2,6.3-1.2,9.3v8c0,1.5,0,5.5,0.3,9.4c0.2,2.8,0.9,4.5,3.7,4.9c1.3,0.2,3.5,0.4,4.4,0.4
		c0.5,0,0.8,0.4,0.8,0.8c0,0.4-0.5,0.8-1.5,0.8c-5.4,0-11.7-0.3-12.2-0.3c-0.4,0-6.6,0.3-9.5,0.3c-1.1,0-1.5-0.2-1.5-0.8
		c0-0.3,0.2-0.8,0.8-0.8c0.9,0,2-0.2,2.9-0.4c2-0.4,2.6-2.2,2.9-4.9c0.2-3.9,0.2-7.8,0.2-9.4V48.2z"/>
</g>
</svg>
