<?xml version="1.0" encoding="utf-8"?>
<!-- Generator: Adobe Illustrator 25.2.1, SVG Export Plug-In . SVG Version: 6.00 Build 0)  -->
<svg version="1.1" id="レイヤー_1" xmlns="http://www.w3.org/2000/svg" xmlns:xlink="http://www.w3.org/1999/xlink" x="0px"
	 y="0px" viewBox="0 0 434.3 69" style="enable-background:new 0 0 434.3 69;" xml:space="preserve">
<style type="text/css">
	.st0{fill:#707070;}
	.st1{enable-background:new    ;}
	.st2{fill:#040000;}
	.st3{fill:#1E2A35;}
</style>
<path class="st0" d="M399.8,68.8H34.5c-18.9,0-34.3-15.4-34.3-34.3c0-18.9,15.4-34.3,34.3-34.3h365.3c18.9,0,34.3,15.4,34.3,34.3
	C434.1,53.4,418.7,68.8,399.8,68.8z M34.5,1.2C16.1,1.2,1.2,16.1,1.2,34.5s14.9,33.3,33.3,33.3h365.3c18.4,0,33.3-14.9,33.3-33.3
	s-15-33.3-33.3-33.3H34.5z"/>
<g>
	<g class="st1">
		<path class="st2" d="M104.2,31.7v11.8c0,0.8,0.1,1.3,0.4,1.5c0.2,0.3,0.7,0.4,1.3,0.4V46c-0.4,0-0.9,0-1.6-0.1c-0.7,0-1.4,0-2.1,0
			c-0.7,0-1.5,0-2.2,0c-0.7,0-1.3,0-1.7,0.1v-0.6c0.6,0,1-0.1,1.3-0.4c0.2-0.3,0.4-0.8,0.4-1.5v-8.6c0-0.8-0.1-1.4-0.4-1.8
			c-0.2-0.4-0.7-0.6-1.3-0.6V32c0.6,0.1,1.1,0.1,1.7,0.1c0.8,0,1.6,0,2.3-0.1C102.9,31.9,103.6,31.8,104.2,31.7z M101.8,24.9
			c0.8,0,1.5,0.2,2,0.6s0.7,0.9,0.7,1.7c0,0.7-0.2,1.3-0.7,1.7s-1.1,0.6-2,0.6c-0.8,0-1.5-0.2-2-0.6c-0.5-0.4-0.7-0.9-0.7-1.7
			c0-0.7,0.2-1.3,0.7-1.7C100.3,25.1,100.9,24.9,101.8,24.9z"/>
		<path class="st2" d="M120.8,31.6c0.8,0,1.4,0.1,1.9,0.3c0.5,0.2,0.8,0.5,1.1,0.8c0.3,0.3,0.5,0.8,0.6,1.3c0.1,0.5,0.2,1.3,0.2,2.2
			v7.3c0,0.8,0.1,1.3,0.4,1.5c0.2,0.3,0.7,0.4,1.3,0.4V46c-0.4,0-0.9,0-1.6-0.1c-0.7,0-1.4,0-2.1,0c-0.7,0-1.5,0-2.1,0
			c-0.7,0-1.2,0-1.5,0.1v-0.6c0.5,0,0.9-0.1,1.1-0.4c0.2-0.3,0.3-0.8,0.3-1.5v-8.6c0-0.4,0-0.8-0.1-1.1c-0.1-0.3-0.2-0.5-0.5-0.7
			c-0.2-0.2-0.5-0.2-0.9-0.2c-0.6,0-1.2,0.2-1.6,0.7c-0.5,0.5-0.7,1.1-0.7,1.8v8c0,0.8,0.1,1.3,0.3,1.5c0.2,0.3,0.6,0.4,1.1,0.4V46
			c-0.3,0-0.8,0-1.5-0.1c-0.6,0-1.3,0-2,0c-0.7,0-1.5,0-2.2,0c-0.7,0-1.3,0-1.7,0.1v-0.6c0.6,0,1-0.1,1.3-0.4
			c0.2-0.3,0.4-0.8,0.4-1.5v-8.6c0-0.8-0.1-1.4-0.4-1.8c-0.2-0.4-0.7-0.6-1.3-0.6V32c0.6,0.1,1.1,0.1,1.7,0.1c0.8,0,1.6,0,2.3-0.1
			c0.7-0.1,1.4-0.2,2-0.3v2.2c0.4-0.8,1-1.4,1.8-1.8C119,31.8,119.8,31.6,120.8,31.6z"/>
		<path class="st2" d="M138,24.8c0.7,0,1.3,0.1,1.8,0.3c0.5,0.2,0.9,0.4,1.3,0.7c0.3,0.2,0.5,0.5,0.7,0.9c0.2,0.4,0.3,0.8,0.3,1.3
			c0,0.5-0.2,1-0.6,1.4c-0.4,0.4-0.9,0.6-1.5,0.6c-0.7,0-1.2-0.2-1.6-0.6c-0.4-0.4-0.6-0.9-0.6-1.5c0-0.5,0.1-0.9,0.4-1.3
			c0.3-0.4,0.7-0.7,1.3-0.9c-0.1-0.1-0.2-0.2-0.3-0.2c-0.1-0.1-0.3-0.1-0.6-0.1c-0.3,0-0.6,0.1-0.8,0.2c-0.2,0.1-0.4,0.3-0.5,0.5
			c-0.2,0.2-0.3,0.6-0.4,1s-0.1,1.1-0.1,2V32h2.9v0.5h-2.9v10.7c0,0.9,0.2,1.5,0.6,1.8c0.4,0.3,1,0.4,1.8,0.4V46c-0.5,0-1.2,0-2-0.1
			c-0.9,0-1.8,0-2.8,0c-0.7,0-1.4,0-2.1,0c-0.7,0-1.2,0-1.5,0.1v-0.6c0.6,0,1-0.1,1.3-0.4c0.2-0.3,0.4-0.8,0.4-1.5V32.6h-1.7V32h1.7
			c0-1.6,0.1-2.8,0.4-3.7c0.3-0.8,0.7-1.6,1.4-2.2c0.4-0.4,0.9-0.7,1.6-1C136.4,25,137.2,24.8,138,24.8z"/>
		<path class="st2" d="M150.5,31.6c1.4,0,2.5,0.2,3.6,0.7c1,0.5,1.8,1.3,2.4,2.3s0.9,2.5,0.9,4.3c0,1.8-0.3,3.2-0.9,4.3
			c-0.6,1.1-1.4,1.9-2.4,2.3c-1,0.5-2.2,0.7-3.6,0.7c-1.3,0-2.5-0.2-3.5-0.7c-1-0.5-1.8-1.3-2.4-2.3c-0.6-1.1-0.9-2.5-0.9-4.3
			c0-1.8,0.3-3.2,0.9-4.3c0.6-1.1,1.4-1.9,2.4-2.3C148,31.8,149.1,31.6,150.5,31.6z M150.5,32.1c-0.6,0-1.2,0.5-1.6,1.6
			c-0.4,1.1-0.6,2.8-0.6,5.2c0,2.4,0.2,4.2,0.6,5.2c0.4,1.1,1,1.6,1.6,1.6c0.6,0,1.2-0.5,1.6-1.6s0.6-2.8,0.6-5.2
			c0-2.4-0.2-4.2-0.6-5.2S151.1,32.1,150.5,32.1z"/>
		<path class="st2" d="M176.2,27.9c1.6,0,3.1,0.3,4.4,0.8c1.3,0.5,2.3,1.3,3.1,2.4c0.8,1.1,1.1,2.5,1.1,4.3c0,1.5-0.2,2.9-0.7,4.1
			s-1.1,2.3-2,3.1c-0.8,0.9-1.7,1.5-2.6,2c-0.9,0.5-1.8,0.7-2.7,0.7c-0.7,0-1.2-0.1-1.5-0.4c-0.3-0.3-0.5-0.6-0.6-1
			c-0.1-0.4-0.1-0.8,0-1.2s0.2-0.8,0.3-1.2l1.6-8c0.6,0,1.3,0,1.9-0.1s1.3-0.2,1.8-0.3l-2.1,9.7c-0.1,0.6-0.2,1-0.1,1.3
			c0,0.3,0.3,0.4,0.7,0.2c0.6-0.2,1.2-0.6,1.8-1.1s1.2-1.1,1.8-1.9s1-1.6,1.4-2.6c0.4-1,0.5-2.1,0.5-3.4c0-1.7-0.4-3-1.1-4
			c-0.7-1-1.7-1.7-2.9-2.2c-1.2-0.5-2.6-0.7-4-0.7c-1.7,0-3.3,0.4-4.8,1.1c-1.5,0.7-2.9,1.7-4.1,3c-1.2,1.3-2.1,2.7-2.8,4.4
			c-0.7,1.6-1,3.4-1,5.2c0,1.9,0.4,3.4,1.1,4.5s1.7,2,3,2.5c1.3,0.5,2.7,0.8,4.3,0.8c1,0,1.9-0.1,2.9-0.3s1.8-0.6,2.7-1.1l0.2,0.4
			c-0.7,0.5-1.5,0.9-2.5,1.2s-2.1,0.4-3.3,0.4c-1.7,0-3.2-0.3-4.6-0.9c-1.3-0.6-2.4-1.5-3.1-2.7c-0.8-1.2-1.1-2.8-1.1-4.7
			c0-1.8,0.3-3.6,1-5.3c0.7-1.7,1.6-3.2,2.9-4.6c1.2-1.3,2.6-2.4,4.2-3.2C172.6,28.3,174.3,27.9,176.2,27.9z M174.2,33.1
			c0.6,0,1.1,0.1,1.4,0.4c0.3,0.3,0.6,0.7,0.7,1.1c0.1,0.5,0.1,0.9,0.1,1.4l-0.3,0.2c0.1-0.3,0.1-0.6,0-0.9c0-0.3-0.2-0.6-0.3-0.9
			c-0.2-0.2-0.4-0.4-0.7-0.4c-0.4,0-0.8,0.2-1.2,0.6s-0.8,1-1.1,1.7c-0.3,0.7-0.6,1.5-0.8,2.4c-0.2,0.9-0.3,1.8-0.3,2.7
			c0,0.8,0.1,1.4,0.3,1.7c0.2,0.3,0.4,0.5,0.7,0.5c0.6,0,1.1-0.4,1.5-1.1c0.5-0.7,0.9-1.7,1.3-3l0.1,0.4c-0.3,1.3-0.7,2.3-1.2,3.1
			c-0.5,0.7-1,1.3-1.5,1.6c-0.6,0.3-1.2,0.5-1.8,0.5c-0.9,0-1.7-0.3-2.3-0.9c-0.6-0.6-0.9-1.5-0.9-2.7c0-0.9,0.2-1.9,0.5-2.9
			c0.3-1,0.8-1.9,1.4-2.8c0.6-0.9,1.3-1.6,2.1-2.1S173.3,33.1,174.2,33.1z"/>
		<path class="st2" d="M195.7,27.6V32h2.9v0.5h-2.9v11.1c0,0.5,0.1,0.8,0.2,1c0.2,0.2,0.4,0.3,0.7,0.3c0.3,0,0.6-0.1,0.9-0.3
			c0.3-0.2,0.6-0.5,0.8-0.9l0.4,0.3c-0.3,0.7-0.8,1.3-1.4,1.8c-0.6,0.5-1.4,0.7-2.4,0.7c-0.6,0-1.1-0.1-1.6-0.2
			c-0.5-0.2-0.8-0.4-1.2-0.7c-0.4-0.4-0.7-0.9-0.8-1.5c-0.1-0.6-0.2-1.3-0.2-2.3v-9.2h-2.2V32h2.2v-3.4c0.8,0,1.6-0.1,2.3-0.2
			C194.4,28.2,195,27.9,195.7,27.6z"/>
		<path class="st2" d="M206.4,46.2c-1.2,0-2.1-0.3-2.6-1c-0.6-0.6-0.8-1.4-0.8-2.3c0-0.8,0.2-1.4,0.5-1.9c0.4-0.5,0.8-0.9,1.4-1.2
			c0.6-0.3,1.1-0.6,1.8-0.8c0.6-0.2,1.2-0.4,1.8-0.6c0.6-0.2,1-0.4,1.4-0.7s0.5-0.6,0.5-1v-2.2c0-0.4-0.1-0.8-0.2-1.1
			c-0.1-0.4-0.3-0.6-0.6-0.9c-0.3-0.2-0.7-0.3-1.2-0.3c-0.3,0-0.6,0-0.9,0.1c-0.3,0.1-0.6,0.2-0.8,0.4c0.6,0.2,1,0.5,1.3,0.9
			c0.3,0.4,0.4,0.8,0.4,1.3c0,0.7-0.2,1.2-0.7,1.6s-1,0.6-1.6,0.6c-0.7,0-1.2-0.2-1.6-0.6c-0.4-0.4-0.6-1-0.6-1.6
			c0-0.5,0.1-1,0.4-1.4c0.3-0.4,0.7-0.7,1.2-1c0.5-0.3,1.2-0.5,1.9-0.7c0.7-0.1,1.5-0.2,2.4-0.2c0.8,0,1.6,0.1,2.3,0.3
			c0.7,0.2,1.3,0.5,1.8,1c0.4,0.4,0.6,0.9,0.8,1.5s0.2,1.4,0.2,2.3V44c0,0.5,0,0.8,0.1,0.9c0.1,0.2,0.2,0.3,0.4,0.3s0.3,0,0.5-0.1
			c0.1-0.1,0.3-0.2,0.4-0.3l0.3,0.5c-0.4,0.3-0.9,0.6-1.4,0.7c-0.5,0.2-1.1,0.3-1.8,0.3c-1.1,0-1.9-0.2-2.2-0.6s-0.6-0.9-0.6-1.5
			c-0.4,0.7-0.9,1.2-1.6,1.6S207.3,46.2,206.4,46.2z M208.8,44.2c0.3,0,0.5-0.1,0.7-0.2c0.2-0.1,0.4-0.3,0.7-0.6v-5.6
			c-0.2,0.3-0.5,0.6-0.8,0.9c-0.3,0.2-0.7,0.5-1,0.8s-0.6,0.6-0.8,1s-0.3,1-0.3,1.7c0,0.7,0.1,1.3,0.4,1.6S208.3,44.2,208.8,44.2z"
			/>
		<path class="st2" d="M226.4,24.8v18.6c0,0.8,0.1,1.3,0.4,1.5c0.2,0.3,0.6,0.4,1.2,0.4V46c-0.3,0-0.9,0-1.5-0.1c-0.7,0-1.4,0-2.1,0
			c-0.7,0-1.5,0-2.2,0c-0.7,0-1.3,0-1.7,0.1v-0.6c0.6,0,1-0.1,1.3-0.4c0.2-0.3,0.4-0.8,0.4-1.5V28.1c0-0.8-0.1-1.4-0.3-1.8
			c-0.2-0.4-0.7-0.6-1.3-0.6v-0.6c0.6,0.1,1.1,0.1,1.7,0.1c0.8,0,1.6,0,2.3-0.1C225.1,25.1,225.8,25,226.4,24.8z M235.3,32v0.5
			c-0.6,0.1-1.2,0.4-1.8,0.8c-0.6,0.4-1.2,0.9-1.9,1.6l-1.5,1.5l0.2-0.4l4.5,8c0.2,0.3,0.4,0.6,0.6,0.8c0.2,0.3,0.4,0.4,0.7,0.6V46
			c-0.3,0-0.7,0-1.3-0.1c-0.6,0-1.2,0-1.8,0c-0.7,0-1.4,0-2.1,0c-0.7,0-1.2,0-1.6,0.1v-0.6c0.4,0,0.6-0.1,0.7-0.2
			c0.1-0.2,0.1-0.4-0.1-0.7l-2.5-4.9c-0.2-0.3-0.3-0.5-0.5-0.6c-0.2-0.1-0.4-0.1-0.7-0.1v-0.5c0.3,0,0.6-0.1,0.8-0.1
			c0.2-0.1,0.5-0.2,0.7-0.4l2.1-2c0.6-0.6,1-1.1,1-1.6c0-0.5-0.2-0.9-0.6-1.2c-0.4-0.3-0.9-0.5-1.6-0.5V32c0.5,0,1.1,0,1.7,0.1
			c0.6,0,1.1,0,1.6,0c0.4,0,0.8,0,1.2,0c0.4,0,0.9,0,1.3,0C234.8,32,235.1,32,235.3,32z"/>
		<path class="st2" d="M246.7,31.6c1.6,0,2.8,0.5,3.7,1.4s1.4,2.5,1.4,4.6h-8.7l0-0.5h5c0-0.9,0-1.7-0.1-2.4
			c-0.1-0.7-0.3-1.3-0.5-1.8c-0.2-0.5-0.6-0.7-1-0.7c-0.5,0-1,0.4-1.4,1.2c-0.4,0.8-0.6,2.1-0.7,4l0.1,0.2c0,0.2-0.1,0.4-0.1,0.6
			c0,0.2,0,0.4,0,0.7c0,1.2,0.2,2.2,0.5,3c0.3,0.7,0.8,1.3,1.3,1.6s1,0.5,1.6,0.5c0.5,0,1-0.1,1.6-0.3c0.6-0.2,1.2-0.8,1.8-1.6
			l0.5,0.2c-0.2,0.7-0.5,1.4-1,2.1c-0.5,0.7-1.1,1.2-1.8,1.7c-0.7,0.4-1.6,0.7-2.7,0.7c-1.2,0-2.3-0.2-3.2-0.7
			c-0.9-0.5-1.7-1.3-2.2-2.4c-0.5-1.1-0.8-2.5-0.8-4.2c0-1.7,0.3-3.1,0.9-4.2c0.6-1.1,1.4-1.9,2.4-2.4
			C244.3,31.9,245.4,31.6,246.7,31.6z"/>
		<path class="st2" d="M262.6,27.6V32h2.9v0.5h-2.9v11.1c0,0.5,0.1,0.8,0.2,1c0.2,0.2,0.4,0.3,0.7,0.3c0.3,0,0.6-0.1,0.9-0.3
			c0.3-0.2,0.6-0.5,0.8-0.9l0.4,0.3c-0.3,0.7-0.8,1.3-1.4,1.8c-0.6,0.5-1.4,0.7-2.4,0.7c-0.6,0-1.1-0.1-1.6-0.2
			c-0.5-0.2-0.8-0.4-1.2-0.7c-0.4-0.4-0.7-0.9-0.8-1.5s-0.2-1.3-0.2-2.3v-9.2h-2.2V32h2.2v-3.4c0.8,0,1.6-0.1,2.3-0.2
			C261.3,28.2,262,27.9,262.6,27.6z"/>
		<path class="st2" d="M273.3,46.2c-1.2,0-2.1-0.3-2.6-1c-0.6-0.6-0.8-1.4-0.8-2.3c0-0.8,0.2-1.4,0.5-1.9c0.4-0.5,0.8-0.9,1.4-1.2
			c0.6-0.3,1.1-0.6,1.8-0.8c0.6-0.2,1.2-0.4,1.8-0.6c0.6-0.2,1-0.4,1.4-0.7s0.5-0.6,0.5-1v-2.2c0-0.4-0.1-0.8-0.2-1.1
			c-0.1-0.4-0.3-0.6-0.6-0.9s-0.7-0.3-1.2-0.3c-0.3,0-0.6,0-0.9,0.1c-0.3,0.1-0.6,0.2-0.8,0.4c0.6,0.2,1,0.5,1.3,0.9
			c0.3,0.4,0.4,0.8,0.4,1.3c0,0.7-0.2,1.2-0.7,1.6c-0.5,0.4-1,0.6-1.6,0.6c-0.7,0-1.2-0.2-1.6-0.6c-0.4-0.4-0.6-1-0.6-1.6
			c0-0.5,0.1-1,0.4-1.4c0.3-0.4,0.7-0.7,1.2-1c0.5-0.3,1.2-0.5,1.9-0.7c0.7-0.1,1.5-0.2,2.4-0.2c0.8,0,1.6,0.1,2.3,0.3
			c0.7,0.2,1.3,0.5,1.8,1c0.4,0.4,0.6,0.9,0.8,1.5c0.1,0.6,0.2,1.4,0.2,2.3V44c0,0.5,0,0.8,0.1,0.9c0.1,0.2,0.2,0.3,0.4,0.3
			s0.3,0,0.5-0.1c0.1-0.1,0.3-0.2,0.4-0.3l0.3,0.5c-0.4,0.3-0.9,0.6-1.4,0.7c-0.5,0.2-1.1,0.3-1.8,0.3c-1.1,0-1.9-0.2-2.2-0.6
			s-0.6-0.9-0.6-1.5c-0.4,0.7-0.9,1.2-1.6,1.6C275,46,274.2,46.2,273.3,46.2z M275.7,44.2c0.3,0,0.5-0.1,0.7-0.2s0.4-0.3,0.7-0.6
			v-5.6c-0.2,0.3-0.5,0.6-0.8,0.9c-0.3,0.2-0.7,0.5-1,0.8c-0.3,0.3-0.6,0.6-0.8,1c-0.2,0.4-0.3,1-0.3,1.7c0,0.7,0.1,1.3,0.4,1.6
			C274.9,44.1,275.3,44.2,275.7,44.2z"/>
		<path class="st2" d="M290.6,42c0.8,0,1.4,0.2,1.8,0.6s0.7,0.9,0.7,1.6c0,0.7-0.2,1.3-0.7,1.7s-1.1,0.6-1.8,0.6
			c-0.8,0-1.4-0.2-1.8-0.6c-0.4-0.4-0.6-0.9-0.6-1.7c0-0.7,0.2-1.2,0.6-1.6C289.2,42.2,289.8,42,290.6,42z"/>
		<path class="st2" d="M303.8,51.1c-1.2,0-2.2-0.1-3.1-0.3c-0.9-0.2-1.6-0.5-2.1-0.8c-0.5-0.4-0.7-0.8-0.7-1.3c0-0.5,0.3-1,0.8-1.5
			c0.5-0.4,1.3-0.8,2.3-1l0.2,0.4c-0.3,0.3-0.5,0.6-0.6,0.9c-0.1,0.3-0.2,0.6-0.2,0.9c0,0.7,0.3,1.3,1,1.7c0.7,0.4,1.6,0.6,2.8,0.6
			c0.8,0,1.5-0.1,2.1-0.3c0.6-0.2,1.1-0.5,1.4-1c0.3-0.4,0.5-0.9,0.5-1.5c0-0.5-0.2-1-0.6-1.3s-1.2-0.5-2.3-0.5h-1.6
			c-0.8,0-1.4-0.1-2-0.3c-0.6-0.2-1-0.5-1.3-0.8c-0.3-0.4-0.4-0.8-0.4-1.4c0-0.8,0.3-1.5,0.9-2.1c0.6-0.6,1.5-1.1,2.6-1.6l0.2,0.2
			c-0.3,0.2-0.5,0.4-0.8,0.6c-0.2,0.2-0.4,0.5-0.4,0.9c0,0.6,0.3,0.9,1,0.9h2.8c1.6,0,3,0.3,4,0.9c1,0.6,1.6,1.5,1.6,2.9
			c0,0.9-0.3,1.7-0.9,2.5c-0.6,0.8-1.5,1.4-2.7,1.8C307.2,50.9,305.7,51.1,303.8,51.1z M304.1,40.2c-1.6,0-3-0.4-4-1.1
			c-1.1-0.7-1.6-1.8-1.6-3.3c0-1.5,0.5-2.6,1.6-3.3c1.1-0.7,2.4-1,4-1c1.6,0,2.9,0.3,4,1c1.1,0.7,1.6,1.8,1.6,3.3
			c0,1.5-0.5,2.6-1.6,3.3C307.1,39.9,305.7,40.2,304.1,40.2z M304.1,39.8c0.4,0,0.7-0.3,1-0.8c0.2-0.6,0.4-1.6,0.4-3
			c0-1.4-0.1-2.4-0.4-3c-0.2-0.6-0.6-0.8-1-0.8c-0.4,0-0.7,0.3-1,0.8s-0.4,1.5-0.4,3c0,1.4,0.1,2.4,0.4,3
			C303.4,39.5,303.7,39.8,304.1,39.8z M308.4,34l-0.6-0.2c0.3-0.7,0.7-1.3,1.3-1.8c0.6-0.5,1.3-0.7,2-0.7c0.6,0,1,0.2,1.3,0.5
			c0.3,0.3,0.4,0.7,0.4,1.3c0,0.5-0.1,0.9-0.4,1.2c-0.3,0.3-0.6,0.4-1,0.4c-0.3,0-0.6-0.1-0.9-0.3c-0.3-0.2-0.4-0.6-0.5-1
			c0-0.5,0.1-1,0.5-1.7l0.2,0.2c-0.7,0.2-1.2,0.5-1.5,0.9S308.7,33.4,308.4,34z"/>
		<path class="st2" d="M331,31.7v11.4c0,0.8,0.1,1.4,0.4,1.8c0.2,0.4,0.7,0.6,1.3,0.6V46c-0.6-0.1-1.1-0.1-1.7-0.1
			c-0.8,0-1.6,0-2.3,0.1s-1.4,0.2-2,0.3v-2.2c-0.4,0.8-1,1.4-1.8,1.7c-0.7,0.4-1.6,0.5-2.6,0.5c-0.8,0-1.4-0.1-1.9-0.3
			c-0.5-0.2-0.8-0.5-1.1-0.8c-0.3-0.3-0.5-0.8-0.6-1.3c-0.1-0.6-0.2-1.3-0.2-2.2v-6.9c0-0.8-0.1-1.4-0.4-1.8
			c-0.2-0.4-0.7-0.6-1.3-0.6V32c0.6,0.1,1.1,0.1,1.7,0.1c0.8,0,1.6,0,2.3-0.1c0.7-0.1,1.4-0.2,2-0.3v11.4c0,0.4,0,0.8,0.1,1.1
			c0.1,0.3,0.2,0.5,0.5,0.7c0.2,0.2,0.5,0.2,0.9,0.2c0.6,0,1.2-0.2,1.6-0.7c0.5-0.5,0.7-1.1,0.7-1.8v-7.6c0-0.8-0.1-1.4-0.4-1.8
			c-0.2-0.4-0.7-0.6-1.3-0.6V32c0.6,0.1,1.1,0.1,1.7,0.1c0.8,0,1.6,0,2.3-0.1C329.8,31.9,330.4,31.8,331,31.7z"/>
		<path class="st2" d="M343.3,31.7v11.8c0,0.8,0.1,1.3,0.4,1.5c0.2,0.3,0.7,0.4,1.3,0.4V46c-0.4,0-0.9,0-1.6-0.1c-0.7,0-1.4,0-2.1,0
			c-0.7,0-1.5,0-2.2,0c-0.7,0-1.3,0-1.7,0.1v-0.6c0.6,0,1-0.1,1.3-0.4c0.2-0.3,0.4-0.8,0.4-1.5v-8.6c0-0.8-0.1-1.4-0.4-1.8
			c-0.2-0.4-0.7-0.6-1.3-0.6V32c0.6,0.1,1.1,0.1,1.7,0.1c0.8,0,1.6,0,2.3-0.1C342,31.9,342.7,31.8,343.3,31.7z M341,24.9
			c0.8,0,1.5,0.2,2,0.6c0.5,0.4,0.7,0.9,0.7,1.7c0,0.7-0.2,1.3-0.7,1.7c-0.5,0.4-1.1,0.6-2,0.6c-0.8,0-1.5-0.2-2-0.6
			c-0.5-0.4-0.7-0.9-0.7-1.7c0-0.7,0.2-1.3,0.7-1.7C339.4,25.1,340.1,24.9,341,24.9z"/>
		<path class="st2" d="M355.9,31.6c0.8,0,1.5,0.1,2.1,0.3c0.6,0.2,1.1,0.6,1.4,1.1l-0.3,0.3c-0.2-0.3-0.5-0.5-0.9-0.7
			c-0.3-0.1-0.7-0.2-1-0.2c-0.9,0-1.5,0.5-2,1.6c-0.5,1.1-0.7,2.7-0.7,4.9c0,1.6,0.1,2.8,0.3,3.7c0.2,0.9,0.5,1.5,0.8,1.9
			c0.3,0.4,0.7,0.5,1.1,0.5c0.6,0,1.1-0.2,1.5-0.6c0.4-0.4,0.7-1,0.7-1.7l0.1,1.1c-0.3,0.8-0.8,1.5-1.3,1.9
			c-0.6,0.4-1.3,0.6-2.2,0.6c-1,0-2-0.3-2.8-0.8c-0.8-0.5-1.5-1.3-2-2.4c-0.5-1.1-0.7-2.5-0.7-4.3c0-1.6,0.3-3,0.8-4.1
			c0.5-1.1,1.2-1.9,2.1-2.4C353.7,31.9,354.7,31.6,355.9,31.6z M363.2,24.8V43c0,0.8,0.1,1.4,0.4,1.8c0.2,0.4,0.7,0.6,1.3,0.6V46
			c-0.6-0.1-1.1-0.1-1.7-0.1c-0.8,0-1.6,0-2.3,0.1c-0.7,0.1-1.4,0.2-2,0.3V28.1c0-0.8-0.1-1.4-0.3-1.8c-0.2-0.4-0.7-0.6-1.3-0.6
			v-0.6c0.6,0.1,1.1,0.1,1.7,0.1c0.8,0,1.6,0,2.3-0.1C361.9,25.1,362.6,25,363.2,24.8z"/>
		<path class="st2" d="M376.5,31.6c1.6,0,2.8,0.5,3.7,1.4s1.4,2.5,1.4,4.6h-8.7l0-0.5h5c0-0.9,0-1.7-0.1-2.4
			c-0.1-0.7-0.3-1.3-0.5-1.8c-0.2-0.5-0.6-0.7-1-0.7c-0.5,0-1,0.4-1.4,1.2c-0.4,0.8-0.6,2.1-0.7,4l0.1,0.2c0,0.2-0.1,0.4-0.1,0.6
			c0,0.2,0,0.4,0,0.7c0,1.2,0.2,2.2,0.5,3c0.3,0.7,0.8,1.3,1.3,1.6s1,0.5,1.6,0.5c0.5,0,1-0.1,1.6-0.3c0.6-0.2,1.2-0.8,1.8-1.6
			l0.5,0.2c-0.2,0.7-0.5,1.4-1,2.1c-0.5,0.7-1.1,1.2-1.8,1.7c-0.7,0.4-1.6,0.7-2.7,0.7c-1.2,0-2.3-0.2-3.2-0.7
			c-0.9-0.5-1.7-1.3-2.2-2.4c-0.5-1.1-0.8-2.5-0.8-4.2c0-1.7,0.3-3.1,0.9-4.2c0.6-1.1,1.4-1.9,2.4-2.4
			C374.1,31.9,375.2,31.6,376.5,31.6z"/>
	</g>
	<g id="グループ_855" transform="translate(0 0)">
		<path id="パス_6567" class="st3" d="M65.4,41c-0.5,0.3-1.2,0.3-1.7,0l-13.7-8.3v11.1c0,2.4,1.9,4.3,4.3,4.3h20.5
			c2.4,0,4.3-1.9,4.3-4.3V32.6L65.4,41z"/>
	</g>
	<g id="グループ_857" transform="translate(0 0)">
		<path id="パス_6568" class="st3" d="M74.8,26.6H54.3c-2,0-3.7,1.4-4.2,3.4l14.4,8.8L79,30C78.6,28,76.8,26.6,74.8,26.6z"/>
	</g>
</g>
</svg>
