<?xml version="1.0" encoding="utf-8"?>
<!-- Generator: Adobe Illustrator 25.2.1, SVG Export Plug-In . SVG Version: 6.00 Build 0)  -->
<svg version="1.1" id="レイヤー_1" xmlns="http://www.w3.org/2000/svg" xmlns:xlink="http://www.w3.org/1999/xlink" x="0px"
	 y="0px" viewBox="0 0 91.9 8.4" style="enable-background:new 0 0 91.9 8.4;" xml:space="preserve">
<style type="text/css">
	.st0{fill:#105B6D;}
</style>
<g id="グループ_1914" transform="translate(-636.893 -2360.943)">
	<g id="グループ_1913" transform="translate(288.868 14.633)">
		<path id="パス_268" class="st0" d="M374.9,2347.3c5.9,2.9,12.5,4.3,19.1,4.2c6.3-0.1,12.4-1.9,17.7-5.2
			c-4.5,5.1-11,8.2-17.8,8.4C382.6,2355,374.9,2347.3,374.9,2347.3z"/>
		<path id="パス_269" class="st0" d="M403.2,2347.3c5.9,2.9,12.5,4.3,19.1,4.2c6.3-0.1,12.4-1.9,17.7-5.2
			c-4.5,5.1-11,8.2-17.8,8.4C410.8,2355,403.2,2347.3,403.2,2347.3z"/>
		<path id="パス_270" class="st0" d="M348,2347.3c5.9,2.9,12.5,4.3,19.1,4.2c6.3-0.1,12.4-1.9,17.7-5.2c-4.5,5.1-11,8.2-17.8,8.4
			C355.7,2355,348,2347.3,348,2347.3z"/>
	</g>
</g>
</svg>
